<?xml version="1.0" encoding="UTF-8" standalone="no"?>
<!-- Created with Inkscape (http://www.inkscape.org/) -->

<svg
   width="53.057915mm"
   height="54.707603mm"
   viewBox="0 0 53.057915 54.707603"
   version="1.1"
   id="svg1"
   xml:space="preserve"
   xmlns="http://www.w3.org/2000/svg"
   xmlns:svg="http://www.w3.org/2000/svg"><defs
     id="defs1" /><g
     id="layer1"
     transform="translate(-92.530796,-115.10218)"><path
       style="fill:none;fill-opacity:0.1;stroke:#000000;stroke-width:1;stroke-linecap:square;stroke-dasharray:none;stroke-dashoffset:0;stroke-opacity:1"
       d="m 124.60887,116.29502 -30.96062,10.32521 18.93303,21.37979 -17.70822,9.76532"
       id="path30" /><path
       style="fill:none;fill-opacity:0.1;stroke:#000000;stroke-width:1;stroke-linecap:square;stroke-dasharray:none;stroke-dashoffset:0;stroke-opacity:1"
       d="m 123.93333,168.74698 -11.35205,-20.74696 31.91272,-3.79388 -19.61589,-27.3502 -12.29683,31.14408"
       id="path31" /><path
       style="fill:none;fill-opacity:0.1;stroke:#000000;stroke-width:1;stroke-linecap:square;stroke-dasharray:1, 2;stroke-dashoffset:0;stroke-opacity:1"
       d="m 94.87306,157.86079 17.9845,1.36962 11.07577,9.51657"
       id="path32" /><path
       style="fill:none;fill-opacity:0.1;stroke:#000000;stroke-width:1;stroke-linecap:square;stroke-dasharray:1, 2;stroke-dashoffset:0;stroke-opacity:1"
       d="m 124.25043,169.00643 13.09481,-17.71218 7.49469,-7.08811"
       id="path33" /><path
       style="fill:none;fill-opacity:0.1;stroke:#000000;stroke-width:1;stroke-linecap:square;stroke-dasharray:1, 2;stroke-dashoffset:0;stroke-opacity:1"
       d="m 137.34525,151.29424 -24.48769,7.84072 8.5436,-23.34516 z"
       id="path34" /><path
       style="fill:none;fill-opacity:0.1;stroke:#000000;stroke-width:1;stroke-linecap:square;stroke-dasharray:1, 2;stroke-dashoffset:0;stroke-opacity:1"
       d="m 137.34525,151.29424 1.84491,-26.51704 -17.789,11.0126 -24.25872,2.07523 15.71512,21.26993"
       id="path35" /><path
       style="fill:none;fill-opacity:0.1;stroke:#000000;stroke-width:1;stroke-linecap:square;stroke-dasharray:1, 2;stroke-dashoffset:0;stroke-opacity:1"
       d="m 94.28971,158.12433 2.85273,-20.2593 -3.49419,-11.2448"
       id="path36" /><path
       style="fill:none;fill-opacity:0.1;stroke:#000000;stroke-width:1;stroke-linecap:square;stroke-dasharray:1, 2;stroke-dashoffset:0;stroke-opacity:1"
       d="m 97.14244,137.86503 15.13369,-22.21234 9.12503,20.13711"
       id="path37" /><path
       style="fill:none;fill-opacity:0.1;stroke:#000000;stroke-width:1;stroke-linecap:square;stroke-dasharray:1, 2;stroke-dashoffset:0;stroke-opacity:1"
       d="m 139.19016,124.7772 -26.91403,-9.12451"
       id="path38" /><path
       style="fill:#000000;fill-opacity:0.1;stroke:none;stroke-width:1;stroke-linecap:square;stroke-dasharray:none;stroke-dashoffset:0;stroke-opacity:1"
       d="m 94.28971,158.12433 29.86799,11.09382 20.87478,-24.9447 -5.84232,-19.49625 -14.24474,-8.79629 -12.66929,-0.32822 -19.23367,10.76561 z"
       id="path39" /><path
       style="fill:none;fill-opacity:0.1;stroke:#000000;stroke-width:1;stroke-linecap:square;stroke-dasharray:none;stroke-dashoffset:0;stroke-opacity:1"
       d="m 94.28971,158.12433 29.86799,11.09382 20.87478,-24.9447 -5.84232,-19.49625 -14.24474,-8.79629 -12.66929,-0.32822 -19.23367,10.76561 z"
       id="path29" /></g></svg>
