<?xml version="1.0" encoding="UTF-8" standalone="no"?>
<!-- Created with Inkscape (http://www.inkscape.org/) -->

<svg
   width="210mm"
   height="297mm"
   viewBox="0 0 210 297"
   version="1.1"
   id="svg1"
   xml:space="preserve"
   inkscape:version="1.4 (e7c3feb1, 2024-10-09)"
   sodipodi:docname="doodles.svg"
   xmlns:inkscape="http://www.inkscape.org/namespaces/inkscape"
   xmlns:sodipodi="http://sodipodi.sourceforge.net/DTD/sodipodi-0.dtd"
   xmlns="http://www.w3.org/2000/svg"
   xmlns:svg="http://www.w3.org/2000/svg"><sodipodi:namedview
     id="namedview1"
     pagecolor="#ff9bf2"
     bordercolor="#000000"
     borderopacity="0.25"
     inkscape:showpageshadow="2"
     inkscape:pageopacity="0.0"
     inkscape:pagecheckerboard="0"
     inkscape:deskcolor="#d1d1d1"
     inkscape:document-units="mm"
     inkscape:zoom="1.6782834"
     inkscape:cx="381.0441"
     inkscape:cy="196.33156"
     inkscape:window-width="1616"
     inkscape:window-height="880"
     inkscape:window-x="0"
     inkscape:window-y="38"
     inkscape:window-maximized="0"
     inkscape:current-layer="layer1"
     inkscape:export-bgcolor="#ffffff00" /><defs
     id="defs1" /><g
     inkscape:label="Ebene 1"
     inkscape:groupmode="layer"
     id="layer1"><path
       style="fill:#000000;stroke-width:0.477252"
       d="m 10.912492,58.199304 c 0,-0.286055 0.418496,-0.854023 0.929991,-1.262144 0.929991,-0.742041 0.929991,-0.742041 0.918427,-4.462035 -0.0064,-2.045996 -0.110922,-4.233912 -0.23236,-4.862028 -0.121437,-0.62812 -0.412613,-1.285763 -0.647058,-1.46143 C 11.541785,45.89713 11.440593,45.212446 11.383146,42.779751 11.317691,40.007889 11.263993,39.718197 10.799132,39.62909 10.51757,39.575117 10.09907,39.309923 9.8691335,39.039765 9.6391961,38.769607 8.5597801,38.005232 7.4704305,37.341146 6.381081,36.67706 5.2750468,36.133718 5.012577,36.133718 c -0.2926764,0 -0.4772181,-0.19637 -0.4772181,-0.507805 0,-0.279292 0.341022,-0.787474 0.7578268,-1.129287 0.4168047,-0.341807 1.7874081,-1.3389 3.0457844,-2.215759 1.2583768,-0.876855 2.2924239,-1.6726 2.2978829,-1.768317 0.0055,-0.09572 -0.52069,-0.484998 -1.1692202,-0.865062 C 8.8191023,29.267424 7.874496,28.448952 7.3685073,27.828668 6.8625185,27.208384 6.0610848,25.935664 5.5875439,25.000409 5.0524113,23.943502 4.6216474,22.5717 4.449352,21.375741 4.2406351,19.926967 4.2552791,19.080056 4.5086204,17.948006 4.6936833,17.121062 5.3072669,15.521081 5.8721409,14.392501 6.4370144,13.263915 7.5638124,11.606091 8.3761356,10.708444 9.1884592,9.8107976 10.605037,8.6014608 11.524085,8.0210289 12.443134,7.4405975 13.84732,6.7443901 14.644498,6.4739016 15.441677,6.2034131 16.133494,5.9608968 16.18187,5.9349768 c 0.04838,-0.02592 -0.05238,-0.3093483 -0.223901,-0.6298399 -0.217855,-0.407065 -0.227738,-0.666832 -0.03279,-0.8617807 0.194949,-0.1949486 0.392452,-0.1849679 0.655222,0.033112 0.206884,0.1716989 0.571589,0.237184 0.810454,0.1455231 0.238866,-0.091661 0.702414,0.00621 1.030106,0.2174959 0.327693,0.211284 1.176576,0.528306 1.886407,0.7044925 0.709832,0.1761869 2.114682,0.7353396 3.121891,1.2425616 1.34415,0.6769035 2.075834,1.2571068 2.750606,2.1811473 0.505624,0.6924095 1.237833,1.8401267 1.627127,2.5504837 0.583473,1.064679 0.745739,1.804154 0.923749,4.20965 0.183656,2.481832 0.140364,3.213602 -0.289582,4.894673 -0.278037,1.087112 -0.74803,2.524803 -1.044431,3.194869 -0.324765,0.734185 -1.3577,2.024291 -2.59944,3.246623 -1.13329,1.11558 -2.813662,2.464083 -3.73416,2.996672 -1.673633,0.968344 -1.673633,0.968344 0.115438,2.524274 0.983988,0.855765 2.195978,1.943044 2.69331,2.416182 0.497331,0.473137 0.854609,1.011205 0.79395,1.19571 -0.06066,0.184506 -0.77415,0.655324 -1.585537,1.046265 -0.811388,0.390935 -1.783142,1.018683 -2.159452,1.394996 -0.376312,0.376308 -0.868994,0.684202 -1.094851,0.684202 -0.317417,0 -0.410649,0.311774 -0.410649,1.37323 0,0.755279 -0.134285,2.144353 -0.298411,3.086834 -0.251711,1.445433 -0.415424,1.780759 -1.04612,2.14273 -0.74771,0.429126 -0.74771,0.429126 -0.830874,4.951013 -0.04574,2.487033 -0.04227,4.761027 0.0077,5.05331 0.04999,0.292288 0.468487,0.773042 0.929999,1.068346 0.474978,0.303924 0.839113,0.763574 0.839113,1.059217 0,0.287268 -0.185379,0.557998 -0.411953,0.601633 -0.226574,0.04362 -0.82443,-0.199057 -1.32857,-0.539318 -0.916616,-0.618656 -0.916616,-0.618656 -0.916616,-5.965048 0,-2.940517 -0.05979,-5.402911 -0.132858,-5.471988 -0.07307,-0.06908 -0.744165,-0.207858 -1.491319,-0.308405 -1.358462,-0.182811 -1.358462,-0.182811 -1.14097,1.193033 0.119621,0.756716 0.228422,3.12721 0.241781,5.267759 0.01336,2.140554 0.01862,4.025488 0.01169,4.188746 -0.0069,0.163258 -0.488324,0.61165 -1.069761,0.996429 -0.581438,0.384775 -1.23908,0.699594 -1.461427,0.699594 -0.224191,0 -0.404268,-0.231677 -0.404268,-0.520099 z M 17.12677,45.133313 c 0.483073,-0.220104 0.707746,-0.587201 0.840581,-1.37344 0.09971,-0.590174 0.09503,-3.603568 -0.0104,-6.69643 -0.191686,-5.623384 -0.191686,-5.623384 -2.983822,-5.947943 -1.535675,-0.178512 -2.824571,-0.288256 -2.864214,-0.243881 -0.03965,0.04438 0.02725,2.472106 0.148656,5.394957 0.121404,2.922855 0.22714,6.115138 0.234968,7.093962 0.01423,1.779685 0.01423,1.779685 1.409231,1.877274 0.767249,0.05368 1.658408,0.119709 1.980352,0.146745 0.321944,0.02701 0.882034,-0.08602 1.244644,-0.251244 z m -6.325402,-7.936736 c 0.296907,0 0.375975,-0.493154 0.372769,-2.324998 -0.0022,-1.278748 -0.101275,-2.478186 -0.220083,-2.665416 -0.159605,-0.251526 -0.826079,0.09353 -2.5521936,1.321337 -1.6748532,1.191349 -2.2331029,1.722444 -1.9720563,1.876124 0.2002676,0.1179 1.0217645,0.616914 1.8255492,1.108913 0.8037846,0.492003 1.6206698,0.847183 1.8153007,0.789293 0.194631,-0.05789 0.523452,-0.105253 0.730714,-0.105253 z m 9.740617,-0.388307 c 0.202402,0.07767 0.88233,-0.08905 1.510952,-0.370499 1.142948,-0.51171 1.142948,-0.51171 0.263407,-1.271451 -0.483748,-0.417858 -1.396602,-1.225615 -2.028565,-1.795019 -0.631964,-0.569404 -1.21363,-0.970673 -1.292592,-0.891712 -0.07896,0.07896 -0.06043,1.168183 0.04118,2.420496 0.168754,2.079805 0.225996,2.254851 0.661181,2.021948 0.262037,-0.14024 0.642033,-0.19143 0.844435,-0.113763 z M 19.49822,29.635213 c 0.758199,-0.359036 2.089051,-1.22593 2.957449,-1.926426 0.868397,-0.70049 2.079923,-1.888579 2.692278,-2.640193 0.729353,-0.895214 1.353292,-2.086973 1.808948,-3.455187 0.550787,-1.653863 0.695575,-2.603207 0.695575,-4.560759 0,-1.35968 -0.127841,-2.973482 -0.284088,-3.586235 C 27.212134,12.853666 26.524601,11.515326 25.840528,10.492328 24.72468,8.8236314 24.391793,8.5302916 22.603904,7.6402218 21.016749,6.8500832 20.305196,6.6472336 19.108647,6.6437946 18.213797,6.6412174 16.84566,6.8967999 15.72541,7.2758073 14.690951,7.6257897 13.274535,8.2447033 12.577819,8.6511704 11.881103,9.0576379 10.593636,10.116465 9.7167795,11.00412 8.8399239,11.891776 7.6704204,13.39525 7.1178834,14.345181 6.5653464,15.295107 5.922238,16.723717 5.6887532,17.519873 5.3876781,18.546498 5.309552,19.50796 5.4200787,20.826319 c 0.1111223,1.325466 0.3998456,2.354535 1.0061403,3.586097 0.4676635,0.949959 1.3326934,2.250537 1.922288,2.890173 0.5895951,0.639632 1.6169397,1.483346 2.282988,1.874911 0.934959,0.549661 1.695535,0.747123 3.336707,0.866274 1.169141,0.08488 2.581508,0.174555 3.138593,0.199281 0.606379,0.02692 1.566136,-0.21703 2.391425,-0.607842 z m -8.004834,-6.449238 c 0.08298,-0.430887 0.518445,-0.470809 5.135594,-0.470809 4.307236,0 5.044925,0.05828 5.044925,0.398572 0,0.338047 -0.77987,0.409539 -5.135594,0.470809 -4.793773,0.06743 -5.12956,0.0409 -5.044925,-0.398572 z m 0.385873,-4.987942 c -0.08412,-0.219216 -0.08412,-0.577928 0,-0.797144 0.126441,-0.329499 -0.151284,-0.398572 -1.602623,-0.398572 -1.3514068,0 -1.7555687,-0.08815 -1.7555687,-0.382889 0,-0.210587 0.091541,-0.439463 0.2034252,-0.508612 0.111884,-0.06915 1.4566755,-0.159378 2.9884255,-0.200517 2.420251,-0.06499 2.796125,-0.01704 2.86994,0.366267 0.0548,0.284537 -0.146798,0.499214 -0.568097,0.604954 -0.450462,0.113056 -0.701154,0.40449 -0.808154,0.939489 -0.106696,0.533481 -0.314209,0.775591 -0.66476,0.775591 -0.280303,0 -0.578468,-0.179356 -0.662588,-0.398567 z m 7.568457,0.05895 c -0.163951,-0.163955 -0.298093,-0.564794 -0.298093,-0.890757 0,-0.411395 -0.182024,-0.618627 -0.595141,-0.677568 -0.331091,-0.04725 -0.637815,-0.308624 -0.691322,-0.589133 -0.0918,-0.481266 0.05325,-0.495583 3.185852,-0.314457 1.805118,0.10437 3.385207,0.290961 3.511308,0.414641 0.126102,0.123685 0.13986,0.369555 0.03057,0.546386 -0.1384,0.223936 -0.792619,0.283392 -2.155702,0.195917 -1.956998,-0.125594 -1.956998,-0.125594 -1.956998,0.603212 0,0.400844 -0.164787,0.792042 -0.366192,0.869328 -0.201406,0.07729 -0.500334,0.0064 -0.664285,-0.157569 z"
       id="path2" /><path
       style="fill:#000000;stroke-width:0.549843"
       d="m 41.575733,57.675642 c 0,-0.334151 0.328118,-0.822537 0.729152,-1.085307 0.701192,-0.459438 0.723148,-0.586386 0.572485,-3.31072 -0.106719,-1.929811 -0.29019,-2.911308 -0.575493,-3.078719 -0.30056,-0.176362 -0.418826,-0.971198 -0.418826,-2.814827 0,-2.569069 0,-2.569069 -1.996645,-1.919908 -1.54552,0.502485 -2.079417,0.566388 -2.362971,0.282828 -0.28356,-0.283554 -0.162253,-0.797277 0.536899,-2.273688 0.496772,-1.049045 1.409253,-2.695286 2.027733,-3.658303 1.124511,-1.750941 1.124511,-1.750941 0.15886,-1.944068 -0.640907,-0.128185 -1.645877,-0.888491 -2.988396,-2.260866 -1.295325,-1.324126 -2.402373,-2.839037 -3.078355,-4.212478 -0.983906,-1.999064 -1.054594,-2.343475 -1.04077,-5.070695 0.01298,-2.563808 0.139253,-3.239433 1.020107,-5.458708 0.552905,-1.393016 1.458606,-3.19081 2.012666,-3.995093 0.570094,-0.827563 1.84612,-2.024505 2.939576,-2.75739 1.062709,-0.712277 2.847026,-1.637646 3.965148,-2.056368 1.118127,-0.418722 2.632252,-0.916154 3.364725,-1.105399 0.97254,-0.251273 1.28479,-0.466503 1.157611,-0.797932 -0.09802,-0.2554183 0.03871,-0.5355193 0.312652,-0.6406492 0.267741,-0.1027437 0.612157,0.00621 0.765365,0.2421178 0.225501,0.3472254 0.382982,0.2943524 0.826779,-0.2775882 0.519497,-0.6695107 0.595695,-0.6818876 1.454544,-0.2363115 0.498482,0.2586186 0.907653,0.6941492 0.909269,0.9678551 0.0022,0.347957 0.750629,0.74876 2.488675,1.33249 1.367162,0.459162 2.896952,1.127645 3.399531,1.485515 0.502583,0.357871 1.463143,1.247506 2.134583,1.976971 0.671435,0.72946 1.671072,1.981661 2.221409,2.782661 0.550344,0.801006 1.212283,2.04563 1.470978,2.765837 0.258702,0.720206 0.600072,2.093581 0.758602,3.051946 0.249414,1.507791 0.185385,2.066579 -0.475405,4.148752 -0.420008,1.32345 -1.254219,3.131636 -1.853812,4.018191 -0.599587,0.886556 -1.812969,2.186687 -2.696407,2.889183 -0.883427,0.70249 -2.331054,1.611633 -3.216938,2.02032 -0.885891,0.408682 -2.545392,0.892973 -3.687778,1.076197 -1.142392,0.183224 -2.123999,0.370379 -2.181348,0.415901 -0.05735,0.04553 0.443096,1.026936 1.112101,2.180924 0.669005,1.153983 1.514196,2.779604 1.878203,3.61249 0.461417,1.055775 0.564304,1.611864 0.33977,1.836398 -0.224534,0.224534 -0.774195,0.161472 -1.815174,-0.208253 -0.821218,-0.29167 -1.57828,-0.530307 -1.68236,-0.530307 -0.104085,0 -0.18924,1.244624 -0.18924,2.765836 0,2.185296 -0.09166,2.765836 -0.436696,2.765836 -0.330293,0 -0.463658,0.580288 -0.547377,2.381689 -0.105635,2.27299 -0.06982,2.426352 0.784656,3.360211 0.542789,0.593203 0.822637,1.168009 0.710683,1.459744 -0.101561,0.264673 -0.365667,0.481228 -0.586902,0.481228 -0.221229,0 -0.74416,-0.233996 -1.162074,-0.519986 -0.417908,-0.285995 -0.842123,-0.639781 -0.9427,-0.786198 -0.100572,-0.146413 -0.116654,-1.641067 -0.03574,-3.321447 0.147122,-3.055241 0.147122,-3.055241 -1.904331,-3.055241 -2.051447,0 -2.051447,0 -1.841495,2.381689 0.115472,1.309929 0.308825,2.658276 0.429664,2.996319 0.120839,0.338049 0.157925,0.790405 0.08241,1.005239 -0.07551,0.214835 -0.532809,0.595139 -1.016214,0.84512 -0.483405,0.249975 -1.093225,0.454505 -1.355154,0.454505 -0.269505,0 -0.476235,-0.263726 -0.476235,-0.607543 z M 48.643979,46.74923 c 0,-2.048835 -0.100901,-2.660541 -0.461692,-2.798991 -0.268878,-0.103178 -0.697294,0.113784 -1.025831,0.519513 -0.324825,0.401138 -1.005106,0.619744 -1.213519,0.490938 -0.106423,-0.06577 -0.216803,-0.253337 -0.16765,-0.377928 0.07424,-0.188173 0.385815,-0.359266 0.619626,-0.755078 0.289587,-0.490234 0.439965,-0.977898 0.334167,-1.083696 -0.06908,-0.06908 -0.747344,-0.112076 -0.927986,0.151452 -0.09206,0.1343 -0.332839,0.129078 -0.378944,0.04313 -0.194593,-0.362736 -0.566684,0.07227 -0.773263,0.446104 -0.111302,0.20142 0.138291,0.503887 0.307313,0.608346 0.169021,0.104465 0.433056,0.35328 0.433056,0.596844 0,0.243558 0.0071,0.478759 -0.225744,0.478759 -0.232841,0 -0.918842,-0.207439 -1.129256,-0.460972 -0.210419,-0.253532 -0.503931,-0.460972 -0.652262,-0.460972 -0.148326,0 -0.269687,1.097987 -0.269687,2.439967 0,2.439971 0,2.439971 1.152432,2.560519 0.633837,0.0663 1.878467,0.143795 2.765836,0.172205 1.613404,0.05168 1.613404,0.05168 1.613404,-2.570158 z M 40.50013,44.017957 c 0.947467,-0.32896 1.273766,-0.627304 1.423389,-1.301461 0.106769,-0.481063 0.210486,-1.493132 0.230483,-2.249045 0.03596,-1.360272 0.0303,-1.368157 -0.552845,-0.768284 -0.324066,0.333353 -1.097359,1.53956 -1.718434,2.680468 -0.621075,1.140907 -1.012817,2.072297 -0.870539,2.069751 0.142277,-0.0027 0.811854,-0.19669 1.487946,-0.431429 z m 10.618063,-1.684053 c -0.52057,-1.031241 -1.013647,-1.874986 -1.095722,-1.874986 -0.08208,0 -0.149233,0.7406 -0.149233,1.645773 0,1.590278 0.03371,1.655907 0.998773,1.946169 0.549326,0.165211 1.042398,0.268356 1.095722,0.229213 0.05333,-0.03915 -0.328971,-0.914928 -0.84954,-1.946169 z m -5.400447,-0.08386 c 0.300563,-0.436572 1.997659,-0.759368 2.16177,-0.242489 0.105191,0.331413 0.320223,0.602573 0.477858,0.602573 0.157634,0 0.286605,-0.938868 0.286605,-2.086373 0,-2.086373 0,-2.086373 -1.920716,-2.059486 -1.056397,0.01479 -2.231878,-0.08011 -2.612177,-0.210887 -0.580805,-0.199719 -0.69189,-0.128328 -0.694133,0.446088 -0.0016,0.376114 -0.0912,1.444453 -0.199406,2.374084 -0.196734,1.690228 -0.196733,1.690229 0.467927,1.100923 0.380389,-0.337264 1.649689,-0.232163 1.768072,0.09327 0.04439,0.122026 0.176305,0.109971 0.2642,-0.0177 z m 5.384749,-5.641445 c 1.605722,-0.265849 3.680096,-0.846527 4.609726,-1.290405 0.987887,-0.471693 2.527881,-1.646405 3.70609,-2.827028 1.572474,-1.575684 2.18082,-2.459337 2.765842,-4.017526 0.511848,-1.363308 0.741402,-2.583002 0.722972,-3.841438 -0.01644,-1.121812 -0.297971,-2.541545 -0.718947,-3.625411 -0.380574,-0.979842 -1.484246,-2.777636 -2.452613,-3.995103 -1.159927,-1.458316 -2.277724,-2.492427 -3.27614,-3.030871 -0.833518,-0.449513 -2.533363,-1.124506 -3.777435,-1.499977 -1.727684,-0.521433 -2.681056,-0.638874 -4.036356,-0.497218 -0.975927,0.102002 -2.447301,0.408182 -3.269723,0.680398 -0.822422,0.272216 -2.476673,0.973442 -3.676106,1.558277 -1.199438,0.58484 -2.755505,1.632362 -3.457924,2.327831 -0.702418,0.695468 -1.607696,1.96869 -2.011726,2.829387 -0.40403,0.860696 -0.967278,2.256362 -1.251668,3.101476 -0.284384,0.84512 -0.591548,2.163385 -0.68258,2.929492 -0.09777,0.822829 0.03893,2.20636 0.334029,3.380461 0.328867,1.308483 1.003194,2.722536 1.973661,4.138755 0.833292,1.216049 2.067442,2.551992 2.838982,3.073149 1.304271,0.881013 1.528607,0.925655 5.052649,1.005525 2.304611,0.05224 4.782783,-0.09772 6.607267,-0.399779 z m -4.229164,-5.418812 c -0.209308,-0.209303 -0.380557,-0.690465 -0.380557,-1.069241 0,-0.378781 0.159273,-0.787122 0.353934,-0.907433 0.194666,-0.120311 0.513262,-0.0011 0.707994,0.265459 0.320581,0.438411 0.385814,0.435585 0.689839,-0.02986 0.274542,-0.420327 0.410826,-0.442041 0.747253,-0.119074 0.34339,0.329659 0.334246,0.533023 -0.05527,1.229256 -0.25671,0.458844 -0.740319,0.87413 -1.07469,0.922862 -0.33437,0.04872 -0.779198,-0.08265 -0.988502,-0.29195 z m -6.946082,-3.472669 c -0.448963,-0.416083 -0.953175,-1.116544 -1.120481,-1.556578 -0.167301,-0.440039 -0.301143,-1.30966 -0.297432,-1.932494 0.0038,-0.622835 0.288448,-1.754736 0.632743,-2.515339 0.3443,-0.760609 0.989447,-1.76322 1.433665,-2.228035 0.701474,-0.733996 1.044554,-0.845119 2.609324,-0.845119 1.009341,0 2.198101,0.205014 2.703137,0.466178 0.495816,0.256392 1.113581,0.876323 1.37281,1.377621 0.259229,0.501297 0.554582,1.518858 0.656336,2.261256 0.101759,0.742392 0.02711,1.828299 -0.165915,2.413123 -0.193006,0.584824 -0.743784,1.439703 -1.223945,1.899724 -0.656413,0.628882 -1.359959,0.9068 -2.835561,1.120117 -1.079397,0.156035 -2.184356,0.286485 -2.455461,0.289883 -0.271111,0.0033 -0.860262,-0.334255 -1.30922,-0.750337 z m 5.861523,-1.839769 c 0.530934,-0.617248 0.704002,-1.196447 0.704002,-2.356027 0,-0.946797 -0.118079,-1.4646 -0.307313,-1.347643 -0.169027,0.104459 -0.307318,0.374877 -0.307318,0.600928 0,0.226052 -0.474932,0.827998 -1.055407,1.337664 -0.580474,0.509665 -1.350991,1.020475 -1.71226,1.135139 -0.428393,0.135965 -0.860861,0.02386 -1.243437,-0.322389 -0.322631,-0.291978 -0.673189,-0.992428 -0.779022,-1.556556 -0.105829,-0.564133 -0.04492,-1.448781 0.135332,-1.965881 0.231314,-0.663544 0.231534,-0.880721 5.5e-4,-0.738092 -0.179848,0.111151 -0.586143,0.772777 -0.90288,1.470269 -0.316732,0.697497 -0.578919,1.768118 -0.58263,2.379164 -0.0038,0.639666 0.243965,1.429713 0.584224,1.862285 0.558454,0.709957 0.705746,0.739423 2.676465,0.535448 1.729921,-0.179051 2.205513,-0.355396 2.78949,-1.034309 z m -2.676465,-2.441534 c 0,-0.06643 -0.21462,-0.203134 -0.476934,-0.303793 -0.273486,-0.104949 -0.396838,-0.05344 -0.289173,0.120778 0.103266,0.167086 0.317886,0.303794 0.476934,0.303794 0.159047,0 0.289173,-0.05432 0.289173,-0.120779 z m 1.466151,-1.780732 c -0.06691,-0.200714 -0.285869,-0.419678 -0.486584,-0.486583 -0.200714,-0.06691 -0.364936,0.09732 -0.364936,0.364936 0,0.26762 0.218964,0.486584 0.486583,0.486584 0.26762,0 0.431842,-0.164222 0.364937,-0.364937 z m 1.607003,-0.09604 c 0,-0.08451 -0.06915,-0.153659 -0.153659,-0.153659 -0.08451,0 -0.153659,0.06915 -0.153659,0.153659 0,0.08451 0.06915,0.153659 0.153659,0.153659 0.08451,0 0.153659,-0.06915 0.153659,-0.153659 z m 4.701468,5.718338 c -0.541117,-0.341254 -1.198003,-1.034584 -1.459745,-1.540737 -0.261742,-0.506146 -0.473616,-1.445734 -0.470833,-2.087962 0.0027,-0.642233 0.31515,-1.72086 0.694163,-2.396957 0.426474,-0.760763 1.14011,-1.449997 1.872462,-1.808434 1.047209,-0.512547 1.372705,-0.536806 2.829148,-0.210864 1.167102,0.261186 1.866987,0.631181 2.406278,1.272094 0.429708,0.510678 0.851432,1.510243 0.969571,2.298074 0.136818,0.912349 0.06351,1.776784 -0.212085,2.500878 -0.231644,0.608626 -0.780205,1.374651 -1.219029,1.702275 -0.49382,0.368691 -1.489151,0.652163 -2.611961,0.743888 -1.462824,0.119503 -2.004629,0.02804 -2.797969,-0.472255 z m 2.87294,-0.995881 c 0.972659,0.05037 1.472818,-0.09417 1.938886,-0.56024 0.448205,-0.448205 0.628092,-1.027876 0.628092,-2.023955 0,-1.395853 0,-1.395853 -1.181673,-0.153654 -0.815654,0.857425 -1.440647,1.2422 -2.017751,1.2422 -0.459839,0 -1.097613,-0.139974 -1.417275,-0.311052 -0.320119,-0.17132 -0.674091,-0.806202 -0.787991,-1.413316 -0.145076,-0.773343 -0.285176,-0.978566 -0.469489,-0.687722 -0.144487,0.227998 -0.264821,0.803937 -0.26741,1.279859 -0.0027,0.475927 0.156177,1.167388 0.352806,1.536574 0.19663,0.369192 0.575411,0.831857 0.841727,1.028151 0.266317,0.196289 0.615852,0.275532 0.776747,0.176098 0.160895,-0.09944 0.882393,-0.150266 1.603331,-0.112943 z m -0.198851,-3.032224 c 0,-0.169027 -0.284747,-0.307318 -0.63277,-0.307318 -0.348018,0 -0.547297,0.138291 -0.442833,0.307318 0.10446,0.169022 0.389207,0.307313 0.632765,0.307313 0.243558,0 0.442838,-0.138291 0.442838,-0.307313 z m 1.229254,-1.51844 c 0,-0.159048 -0.14749,-0.380332 -0.327761,-0.491747 -0.180266,-0.111409 -0.401551,-0.128773 -0.491741,-0.0386 -0.0902,0.09019 -0.07283,0.311481 0.0386,0.491747 0.111409,0.180271 0.332693,0.327761 0.491746,0.327761 0.159048,0 0.289174,-0.130131 0.289174,-0.289179 z M 39.605794,18.684227 c -0.08928,-0.144454 0.172112,-0.576823 0.58086,-0.960823 0.494809,-0.464853 0.928134,-0.626309 1.296617,-0.483119 0.497251,0.193231 0.465899,0.290779 -0.308819,0.960823 -0.47424,0.410172 -0.98467,0.745763 -1.134293,0.745763 -0.149623,0 -0.345087,-0.118189 -0.434365,-0.262644 z m 15.446979,-0.331819 c -0.540826,-0.441925 -0.635641,-0.680628 -0.37556,-0.945532 0.262556,-0.267416 0.507599,-0.254632 0.998773,0.05213 0.357976,0.223556 0.650861,0.57248 0.650861,0.775378 0,0.202903 -0.123885,0.445477 -0.275301,0.53906 -0.151416,0.09358 -0.600863,-0.09588 -0.998773,-0.42102 z"
       id="path3"
       sodipodi:nodetypes="sssssssssssscsssssssssscssssssssssssssssssssssssssssssssscsssssssssssssssscccsscsscsssssssscsssscsssssssssssssssssssscsssscssccsscccsscsssssscsscscssssscsscscssccsscsssssssssssscscsssssssscsssssssscssssssssscsscsccsssssssscssss" /><path
       style="fill:#000000;stroke-width:0.396564"
       d="m 83.719999,57.725916 -0.87501,-0.77462 0.32589,-3.17571 c 0.50148,-4.88684 0.62834,-4.50742 -1.63526,-4.89081 -1.07862,-0.18268 -2.02213,-0.278 -2.09669,-0.21181 -0.25803,0.22906 0.61262,6.48665 0.96091,6.90632 0.25841,0.31136 0.25121,0.54009 -0.0276,0.87601 -0.47318,0.57015 -2.40356,1.2255 -2.83123,0.96119 -0.57431,-0.35495 -0.33689,-1.10775 0.46455,-1.4729 0.88528,-0.40337 0.91373,-0.6105 0.44467,-3.23763 -0.35472,-1.98669 -0.43037,-14.29622 -0.0987,-16.06405 l 0.19456,-1.03709 h -1.35655 c -1.26115,0 -1.50209,-0.14894 -3.4262,-2.11803 -2.54393,-2.60338 -3.95007,-5.64293 -4.26611,-9.22172 -0.11529,-1.30554 -0.40387,-2.53993 -0.66374,-2.83913 -0.50691,-0.58364 -0.29963,-1.19646 0.4047,-1.19646 0.24868,0 0.45215,-0.20346 0.45215,-0.45215 0,-0.63157 1.020461,-1.116554 1.03145,-0.52461 0.0067,0.358909 0.288201,0.608742 0.598841,0.608742 0.31064,0 0.879969,-0.04774 0.879969,0.211138 0,0.25886 -0.15849,0.47067 -0.3522,0.47067 -0.24805,0 -0.443986,0.339046 -0.176926,0.660856 0.46241,0.55716 0.353226,0.956534 -0.336794,0.837934 -0.42054,-0.0723 -0.49206,0.20129 -0.42848,1.63903 0.1582,3.5767 1.65911,6.92581 4.14654,9.2525 1.22287,1.14387 1.73413,1.4161 2.6594,1.4161 h 1.14548 l -1.80277,-1.94721 c -3.82945,-4.13626 -4.87457,-8.4134 -3.01585,-12.34235 1.78156,-3.76582 5.81722,-7.14401 10.32742,-8.64491 1.45071,-0.48276 1.94931,-0.7874 1.82384,-1.11435 -0.0964,-0.25133 -0.49488,-0.5754626 -0.20163,-0.6879946 0.29619,-0.113658 1.13468,0.00218 1.20677,0.218435 0.093,0.2790496 1.01729,-0.4555417 1.37181,-0.4012003 0.244536,0.037483 0.217571,0.5023926 0.617282,0.5419124 0.526818,0.052084 0.955102,-0.3214231 1.20414,-0.3092571 0.469982,0.02296 -0.08672,0.9091946 0.560458,1.0291646 1.9322,0.3582 4.8222,3.6225 6.04766,6.83093 1.26485,3.31156 1.67791,5.30466 1.42594,6.88041 -0.72163,4.51281 -7.18702,11.51534 -10.63205,11.51534 -1.07805,0 -1.0967,0.6454 -0.13792,4.77043 0.73549,3.16433 0.92346,3.40491 2.74725,3.5161 0.26351,0.0161 0.600109,0.329431 0.56545,0.84482 -0.0403,0.599298 -0.668333,0.873961 -0.76061,1.32817 -0.192112,0.945631 -1.89826,0.49012 -1.55406,-0.06686 0.0953,-0.15417 -0.0723,-0.34473 -0.37234,-0.42346 -0.76038,-0.19948 -1.20427,-1.26967 -1.66214,-4.00738 -0.3573,-2.13629 -0.41922,-2.26654 -0.67131,-1.41202 -0.15273,0.51774 -0.23655,2.56517 -0.18626,4.54984 0.0856,3.37903 0.0506,3.62643 -0.54995,3.89041 -0.56984,0.25047 -0.64947,0.60044 -0.71398,3.13783 -0.0399,1.57075 -0.14324,3.08441 -0.22955,3.36369 -0.097,0.3139 0.15297,0.71084 0.65476,1.03962 0.5421,0.35519 0.77926,0.7587 0.71403,1.21482 -0.13605,0.95134 -0.88164,0.9752 -1.91402,0.0613 z m 0.56228,-11.84472 c -0.18888,-1.80003 0.21001,-7.40698 0.65232,-9.16926 0.17611,-0.70168 0.12151,-0.73233 -1.02938,-0.57797 -0.75648,0.10147 -1.67636,-0.0296 -2.43637,-0.34716 -0.86114,-0.3598 -1.31919,-0.412 -1.55408,-0.17711 -0.20064,0.20064 -0.37936,2.56215 -0.4495,5.93966 l -0.11643,5.6066 1.68173,0.30591 c 0.92496,0.16825 2.08128,0.32269 2.56962,0.34319 l 0.88787,0.0373 z m 5.17635,-11.99465 c 1.95128,-1.00827 5.15644,-4.58064 6.44007,-7.17789 1.0665,-2.15793 1.15991,-2.54641 0.98008,-4.07643 -0.10932,-0.93015 -0.61997,-2.875 -1.13478,-4.32188 -0.80586,-2.26488 -1.19453,-2.88161 -2.795,-4.43496 -1.74912,-1.69762 -1.9489,-1.8038 -3.38068,-1.79658 -5.38055,0.0271 -11.40898,3.80408 -13.8029,8.64785 -1.00051,2.0244 -1.12051,2.50813 -0.95948,3.86777 0.10123,0.8547 0.49426,2.16377 0.87341,2.90904 1.24773,2.45262 4.12674,5.84894 5.77783,6.81602 0.98309,0.57582 6.64177,0.26965 8.00145,-0.43294 z m -6.58061,-4.77432 c -0.75652,-0.96176 -0.73292,-2.08173 0.047,-2.23031 0.37446,-0.0713 0.55567,0.15347 0.62757,0.77857 0.0635,0.55224 0.31439,0.91934 0.67503,0.98778 0.82552,0.15666 2.40699,-0.57 2.40699,-1.10597 0,-0.73145 1.0871,-0.3243 1.19746,0.44848 0.1299,0.90964 -1.55157,1.96318 -3.13583,1.96479 -0.8798,7.9e-4 -1.31171,-0.19944 -1.8182,-0.84334 z m 5.84774,-3.87771 c -1.79142,-1.40913 -2.19717,-3.26584 -1.15858,-5.30166 1.33524,-2.61728 3.25493,-3.12911 5.10137,-1.3601 0.87981,0.8429 1.62086,2.78285 1.36918,3.58426 -0.0736,0.23421 -0.21589,0.80247 -0.3163,1.26282 -0.20062,0.9197 -1.64695,1.95466 -3.18515,2.27921 -0.72039,0.152 -1.17501,0.0354 -1.81052,-0.46453 z m 3.04392,-1.5762 c 1.05375,-0.82888 1.13645,-2.63674 0.17643,-3.85719 -0.65329,-0.83054 -1.95698,-1.11749 -2.33059,-0.51299 -0.10666,0.17258 0.0888,0.31378 0.43437,0.31378 0.68481,0 1.60522,1.09165 1.60522,1.90388 0,0.86857 -1.13204,1.63702 -2.1841,1.48261 -1.09313,-0.16044 -1.15653,-0.0515 -0.43442,0.74642 0.68371,0.7555 1.71196,0.72671 2.73309,-0.0765 z M 91.28357,21.280764 c -0.004,-0.55123 -0.328831,-0.794488 -0.553911,-0.438698 -0.15855,0.25063 -0.21866,0.56833 -0.13357,0.70601 0.27217,0.44037 0.692421,0.458478 0.687481,-0.267312 z m -11.473371,3.173292 c -0.37861,-0.26519 -0.84303,-1.05647 -1.03204,-1.7584 -0.307,-1.14009 -0.25467,-1.45813 0.49043,-2.98106 0.97804,-1.99905 1.89032,-2.69145 3.60541,-2.73642 1.90223,-0.0499 2.89366,1.09581 3.07111,3.54896 0.17273,2.3881 -0.32385,3.21944 -2.33178,3.90361 -1.85874,0.63333 -2.92289,0.63985 -3.80313,0.0233 z m 3.29342,-1.25581 c 1.12243,-0.46898 1.6336,-0.94391 1.64347,-1.52693 0.003,-0.15618 -0.25522,-0.0486 -0.57302,0.23896 -0.31781,0.28761 -1.12082,0.5566 -1.78447,0.59775 -1.11264,0.069 -1.22983,-0.004 -1.50432,-0.93509 -0.59126,-2.00596 1.47015,-3.44477 2.97901,-2.07928 0.47342,0.42844 0.57382,0.43943 0.57382,0.0628 0,-0.6985 -0.66411,-1.20963 -1.57169,-1.20963 -1.47133,0 -2.82126,1.65493 -2.82126,3.45867 0,1.88324 0.90179,2.29391 3.05846,1.39279 z m 0.7899,-2.21499 c 0.10317,-0.10316 0.11021,-0.38917 0.0157,-0.63557 -0.13121,-0.34193 -0.27387,-0.36339 -0.60249,-0.0907 -0.23682,0.19654 -0.3532,0.48255 -0.25862,0.63557 0.1985,0.32119 0.5746,0.36152 0.84546,0.0907 z m 6.42801,-4.3856 c -1.47946,-0.80135 -1.0495,-1.47474 0.64784,-1.01462 0.71028,0.19254 1.00876,0.4433 0.94134,0.79083 -0.13714,0.70702 -0.58149,0.7696 -1.58918,0.22379 z m -9.28571,-0.63751 c 0.12902,-0.68023 2.00272,-1.02114 2.55837,-0.46549 0.45752,0.45752 0.24514,0.59346 -1.31759,0.84335 -1.2171,0.19462 -1.34215,0.15654 -1.24078,-0.37786 z"
       id="path1"
       sodipodi:nodetypes="ccsssscsssscssssssssssccccscssscscssscsssscssccsscscsssscsssssscsccsssssscsscsssccssscsscsscsscssssssssscsscssscsssscccscssssccccccccsscsssss"
       inkscape:export-filename="wave.png"
       inkscape:export-xdpi="100"
       inkscape:export-ydpi="100" /><g
       id="g38"
       inkscape:export-filename="/Users/tobiaskohler/Desktop/hihi.png"
       inkscape:export-xdpi="200"
       inkscape:export-ydpi="200"><g
         id="g37"
         style="stroke-width:2.5;stroke-dasharray:none;stroke:#ffffff;stroke-opacity:1"><path
           style="fill:#ffffff;fill-opacity:1;stroke:#ffffff;stroke-width:2.5;stroke-linecap:square;stroke-dasharray:none;stroke-opacity:1"
           d="m 15.095934,97.808102 c -0.576686,0.65066 -1.567132,7.000908 -1.123647,7.219328 2.301362,1.13343 5.346116,0.40641 7.696,0 0.691213,-0.11954 1.125563,-4.78431 0.203949,-4.95768 -2.234337,-0.420298 -6.137579,-2.982298 -6.776302,-2.261648 z"
           id="path21"
           sodipodi:nodetypes="sssss"
           inkscape:export-filename="/Users/tobiaskohler/Desktop/hihi.png"
           inkscape:export-xdpi="200"
           inkscape:export-ydpi="200" /><path
           style="fill:#ffffff;fill-opacity:1;stroke:#ffffff;stroke-width:2.5;stroke-linecap:square;stroke-dasharray:none;stroke-opacity:1"
           d="m 25.987424,102.22377 c -5.123833,-1.14225 -14.67809,-4.060058 -18.545642,-8.941938 -1.192485,-1.50524 -0.502783,-7.36783 0.292227,-9.2779 1.284139,-3.08526 3.577655,-4.539581 6.1668,-6.247735 3.87767,-2.558239 9.351763,-1.972805 13.899028,-1.022389 3.884394,0.811871 7.881729,2.599491 10.529212,5.555584 3.621422,4.04356 7.386609,9.90949 5.971766,15.15003 -0.757103,2.804288 -4.07282,4.518628 -6.841459,5.397208 -3.650059,1.15828 -6.397523,0.51837 -11.471932,-0.61286 z"
           id="path22"
           sodipodi:nodetypes="ssssaaaas" /><path
           style="fill:#ffffff;fill-opacity:1;stroke:#ffffff;stroke-width:2.5;stroke-linecap:square;stroke-dasharray:none;stroke-opacity:1"
           d="m 18.069061,86.772602 c -1.274196,-0.88071 -2.565241,-2.36367 -2.508513,-3.91158 0.0545,-1.487101 1.342289,-2.916636 2.678582,-3.571438 2.38018,-1.166323 5.715238,-1.296608 7.95071,0.127552 1.421989,0.905909 2.383608,2.872166 2.210893,4.549336 -0.185268,1.79906 -1.618708,3.67054 -3.31634,4.29423 -2.243834,0.82437 -5.048877,-0.1289 -7.015332,-1.4881 z"
           id="path23"
           sodipodi:nodetypes="aaaaaaa" /><path
           style="fill:none;fill-opacity:0.1;stroke:#ffffff;stroke-width:2.5;stroke-linecap:square;stroke-dasharray:none;stroke-opacity:1"
           d="m 15.527063,87.516992 c -1.83221,0.15314 -2.378466,3.32516 -2.026981,5.12985 0.346173,1.77742 2.130637,3.11653 3.746513,3.93384 1.909801,0.96597 4.301792,1.36564 6.369072,0.81174 1.586253,-0.42501 3.689881,-1.35697 3.92099,-2.98283 0.07994,-0.5624 -0.496735,-1.13645 -1.015062,-1.36887 -1.745501,-0.78271 -3.851097,0.9408 -5.715813,0.51391 -0.969723,-0.222 -1.855519,-0.83155 -2.560117,-1.53383 -1.242009,-1.23791 -0.971124,-4.64986 -2.718602,-4.50381 z"
           id="path24"
           sodipodi:nodetypes="aaaaaaaaa" /><path
           style="fill:#000000;fill-opacity:1;stroke:#ffffff;stroke-width:2.5;stroke-linecap:square;stroke-dasharray:none;stroke-opacity:1"
           d="m 17.744356,82.193292 c -0.326664,-0.1494 -0.67341,-0.40368 -0.775715,-0.748013 -0.112744,-0.379465 0.02807,-0.841067 0.266072,-1.15739 0.352474,-0.468468 0.962374,-0.96572 1.537797,-0.853516 0.705631,0.137593 1.260941,0.965638 1.354397,1.678458 0.05912,0.450897 -0.161935,1.016411 -0.554082,1.246681 -0.527744,0.30989 -1.271909,0.0883 -1.828469,-0.16622 z"
           id="path25"
           sodipodi:nodetypes="aaaaaaa" /><path
           style="fill:#ffffff;fill-opacity:1;stroke:#ffffff;stroke-width:2.5;stroke-linecap:square;stroke-dasharray:none;stroke-opacity:1"
           d="m 13.732818,92.472292 3.298315,-1.52867"
           id="path26"
           sodipodi:nodetypes="cc" /><path
           style="fill:#ffffff;fill-opacity:1;stroke:#ffffff;stroke-width:2.5;stroke-linecap:square;stroke-dasharray:none;stroke-opacity:1"
           d="m 19.530771,93.031222 -2.01265,3.29733"
           id="path27"
           sodipodi:nodetypes="cc" /><path
           style="fill:#ffffff;fill-opacity:1;stroke:#ffffff;stroke-width:2.5;stroke-linecap:square;stroke-dasharray:none;stroke-opacity:1"
           d="m 23.244308,93.796152 0.371359,3.28596"
           id="path28"
           sodipodi:nodetypes="cc" /><path
           style="fill:#ffffff;fill-opacity:1;stroke:#ffffff;stroke-width:2.5;stroke-linecap:round;stroke-dasharray:none;stroke-opacity:1"
           d="m 14.254844,99.758602 c 0,0 -1.559753,-0.0797 -2.339296,-0.0538 -0.70159,0.0233 -2.097525,0.18792 -2.097525,0.18792"
           id="path29"
           sodipodi:nodetypes="cac" /><path
           style="fill:#ffffff;fill-opacity:1;stroke:#ffffff;stroke-width:2.5;stroke-linecap:round;stroke-dasharray:none;stroke-opacity:1"
           d="m 22.794099,103.29588 c 0,0 1.244341,0.42422 1.785461,0.78445 0.510305,0.33973 1.332138,1.268 1.332138,1.268"
           id="path30"
           sodipodi:nodetypes="cac" /><path
           style="fill:none;fill-opacity:1;stroke:#ffffff;stroke-width:2.5;stroke-linecap:round;stroke-dasharray:none;stroke-opacity:1;paint-order:normal"
           d="m 15.583989,105.7593 c 0,0 0.207021,2.11996 -0.38126,3.10828 -1.458936,0.25884 -3.549591,-0.56471 -3.549591,-0.56471"
           id="path31"
           sodipodi:nodetypes="ccc" /><path
           style="fill:none;fill-opacity:1;stroke:#ffffff;stroke-width:2.5;stroke-linecap:round;stroke-dasharray:none;stroke-opacity:1"
           d="m 21.309853,105.34106 c 0,0 0.220744,3.32986 -0.742402,4.17189 -0.406013,0.35496 -3.307573,-0.14787 -3.307573,-0.14787"
           id="path32"
           sodipodi:nodetypes="csc" /><path
           style="fill:none;fill-opacity:1;stroke:#ffffff;stroke-width:2.5;stroke-linecap:round;stroke-dasharray:none;stroke-opacity:1"
           d="m 32.403082,78.180677 c 0,0 0.396058,-1.261536 0.381428,-1.910908 -0.01261,-0.559807 -0.402681,-1.63087 -0.402681,-1.63087"
           id="path33"
           sodipodi:nodetypes="cac" /><path
           style="fill:none;fill-opacity:1;stroke:#ffffff;stroke-width:2.5;stroke-linecap:round;stroke-dasharray:none;stroke-opacity:1"
           d="m 34.152469,79.037145 c 0,0 1.399273,-0.680693 1.987959,-1.177223 0.562042,-0.474058 1.427885,-1.68129 1.427885,-1.68129"
           id="path34"
           sodipodi:nodetypes="cac" /><path
           style="fill:none;fill-opacity:1;stroke:#ffffff;stroke-width:2.5;stroke-linecap:round;stroke-dasharray:none;stroke-opacity:1"
           d="m 35.96556,80.180739 c 0,0 1.523891,-0.634579 2.323823,-0.822397 0.704734,-0.165467 2.155799,-0.262322 2.155799,-0.262322"
           id="path35"
           sodipodi:nodetypes="cac" /><path
           style="fill:#ffffff;fill-opacity:1;stroke:#ffffff;stroke-width:2.5;stroke-linecap:square;stroke-dasharray:none;stroke-opacity:1"
           d="m 27.75533,92.388562 c -0.921283,-0.85297 -1.791244,-2.06083 -1.785722,-3.31634 0.0064,-1.4439 0.852713,-3.04674 2.087159,-3.79577 1.986508,-1.20536 4.766158,-0.89765 6.969003,-0.15832 1.9032,0.63875 3.845774,1.93404 4.719403,3.74151 0.678421,1.4036 0.934477,3.42904 0,4.67689 -1.177444,1.57228 -3.694749,1.78746 -5.654784,1.65816 -2.304568,-0.15202 -4.640321,-1.23705 -6.335059,-2.80613 z"
           id="path36"
           sodipodi:nodetypes="aaaaaaaa" /><path
           style="fill:#000000;fill-opacity:1;stroke:#ffffff;stroke-width:2.5;stroke-linecap:square;stroke-dasharray:none;stroke-opacity:1"
           d="m 27.490602,88.400582 c -0.292299,-0.11613 -0.513812,-0.42069 -0.60949,-0.72031 -0.120596,-0.37764 -0.145335,-0.87357 0.09985,-1.18509 0.304026,-0.38628 0.909653,-0.50941 1.399278,-0.46566 0.491308,0.0439 1.080306,0.26668 1.298991,0.70882 0.215396,0.43549 0.128794,1.10408 -0.221636,1.44061 -0.475897,0.45703 -1.353798,0.46525 -1.966989,0.22163 z"
           id="path37"
           sodipodi:nodetypes="aaaaaaa" /></g><g
         id="g21"><path
           style="fill:#ffffff;fill-opacity:1;stroke:#000000;stroke-width:0.97492;stroke-linecap:square;stroke-dasharray:none;stroke-opacity:1"
           d="m 15.095934,97.808102 c -0.576686,0.65066 -1.567132,7.000908 -1.123647,7.219328 2.301362,1.13343 5.346116,0.40641 7.696,0 0.691213,-0.11954 1.125563,-4.78431 0.203949,-4.95768 -2.234337,-0.420298 -6.137579,-2.982298 -6.776302,-2.261648 z"
           id="path10"
           sodipodi:nodetypes="sssss"
           inkscape:export-filename="/Users/tobiaskohler/Desktop/hihi.png"
           inkscape:export-xdpi="200"
           inkscape:export-ydpi="200" /><path
           style="fill:#ffffff;fill-opacity:1;stroke:#000000;stroke-width:0.97492;stroke-linecap:square;stroke-dasharray:none;stroke-opacity:1"
           d="m 25.987424,102.22377 c -5.123833,-1.14225 -14.67809,-4.060058 -18.545642,-8.941938 -1.192485,-1.50524 -0.502783,-7.36783 0.292227,-9.2779 1.284139,-3.08526 3.577655,-4.539581 6.1668,-6.247735 3.87767,-2.558239 9.351763,-1.972805 13.899028,-1.022389 3.884394,0.811871 7.881729,2.599491 10.529212,5.555584 3.621422,4.04356 7.386609,9.90949 5.971766,15.15003 -0.757103,2.804288 -4.07282,4.518628 -6.841459,5.397208 -3.650059,1.15828 -6.397523,0.51837 -11.471932,-0.61286 z"
           id="path9"
           sodipodi:nodetypes="ssssaaaas" /><path
           style="fill:#ffffff;fill-opacity:1;stroke:#000000;stroke-width:0.97492;stroke-linecap:square;stroke-dasharray:none;stroke-opacity:1"
           d="m 18.069061,86.772602 c -1.274196,-0.88071 -2.565241,-2.36367 -2.508513,-3.91158 0.0545,-1.487101 1.342289,-2.916636 2.678582,-3.571438 2.38018,-1.166323 5.715238,-1.296608 7.95071,0.127552 1.421989,0.905909 2.383608,2.872166 2.210893,4.549336 -0.185268,1.79906 -1.618708,3.67054 -3.31634,4.29423 -2.243834,0.82437 -5.048877,-0.1289 -7.015332,-1.4881 z"
           id="path5"
           sodipodi:nodetypes="aaaaaaa" /><path
           style="fill:none;fill-opacity:0.1;stroke:#000000;stroke-width:0.97492;stroke-linecap:square;stroke-dasharray:none;stroke-opacity:1"
           d="m 15.527063,87.516992 c -1.83221,0.15314 -2.378466,3.32516 -2.026981,5.12985 0.346173,1.77742 2.130637,3.11653 3.746513,3.93384 1.909801,0.96597 4.301792,1.36564 6.369072,0.81174 1.586253,-0.42501 3.689881,-1.35697 3.92099,-2.98283 0.07994,-0.5624 -0.496735,-1.13645 -1.015062,-1.36887 -1.745501,-0.78271 -3.851097,0.9408 -5.715813,0.51391 -0.969723,-0.222 -1.855519,-0.83155 -2.560117,-1.53383 -1.242009,-1.23791 -0.971124,-4.64986 -2.718602,-4.50381 z"
           id="path4"
           sodipodi:nodetypes="aaaaaaaaa" /><path
           style="fill:#000000;fill-opacity:1;stroke:#000000;stroke-width:0.324973;stroke-linecap:square;stroke-dasharray:none;stroke-opacity:1"
           d="m 17.744356,82.193292 c -0.326664,-0.1494 -0.67341,-0.40368 -0.775715,-0.748013 -0.112744,-0.379465 0.02807,-0.841067 0.266072,-1.15739 0.352474,-0.468468 0.962374,-0.96572 1.537797,-0.853516 0.705631,0.137593 1.260941,0.965638 1.354397,1.678458 0.05912,0.450897 -0.161935,1.016411 -0.554082,1.246681 -0.527744,0.30989 -1.271909,0.0883 -1.828469,-0.16622 z"
           id="path7"
           sodipodi:nodetypes="aaaaaaa" /><path
           style="fill:#ffffff;fill-opacity:1;stroke:#000000;stroke-width:0.97492;stroke-linecap:square;stroke-dasharray:none;stroke-opacity:1"
           d="m 13.732818,92.472292 3.298315,-1.52867"
           id="path11"
           sodipodi:nodetypes="cc" /><path
           style="fill:#ffffff;fill-opacity:1;stroke:#000000;stroke-width:0.97492;stroke-linecap:square;stroke-dasharray:none;stroke-opacity:1"
           d="m 19.530771,93.031222 -2.01265,3.29733"
           id="path12"
           sodipodi:nodetypes="cc" /><path
           style="fill:#ffffff;fill-opacity:1;stroke:#000000;stroke-width:0.97492;stroke-linecap:square;stroke-dasharray:none;stroke-opacity:1"
           d="m 23.244308,93.796152 0.371359,3.28596"
           id="path13"
           sodipodi:nodetypes="cc" /><path
           style="fill:#ffffff;fill-opacity:1;stroke:#000000;stroke-width:0.97492;stroke-linecap:round;stroke-dasharray:none;stroke-opacity:1"
           d="m 14.254844,99.758602 c 0,0 -1.559753,-0.0797 -2.339296,-0.0538 -0.70159,0.0233 -2.097525,0.18792 -2.097525,0.18792"
           id="path14"
           sodipodi:nodetypes="cac" /><path
           style="fill:#ffffff;fill-opacity:1;stroke:#000000;stroke-width:0.97492;stroke-linecap:round;stroke-dasharray:none;stroke-opacity:1"
           d="m 22.794099,103.29588 c 0,0 1.244341,0.42422 1.785461,0.78445 0.510305,0.33973 1.332138,1.268 1.332138,1.268"
           id="path15"
           sodipodi:nodetypes="cac" /><path
           style="fill:none;fill-opacity:1;stroke:#000000;stroke-width:0.97492;stroke-linecap:round;stroke-dasharray:none;stroke-opacity:1;paint-order:normal"
           d="m 15.583989,105.7593 c 0,0 0.207021,2.11996 -0.38126,3.10828 -1.458936,0.25884 -3.549591,-0.56471 -3.549591,-0.56471"
           id="path16"
           sodipodi:nodetypes="ccc" /><path
           style="fill:none;fill-opacity:1;stroke:#000000;stroke-width:0.97492;stroke-linecap:round;stroke-dasharray:none;stroke-opacity:1"
           d="m 21.309853,105.34106 c 0,0 0.220744,3.32986 -0.742402,4.17189 -0.406013,0.35496 -3.307573,-0.14787 -3.307573,-0.14787"
           id="path17"
           sodipodi:nodetypes="csc" /><path
           style="fill:none;fill-opacity:1;stroke:#000000;stroke-width:0.97492;stroke-linecap:round;stroke-dasharray:none;stroke-opacity:1"
           d="m 32.403082,78.180677 c 0,0 0.396058,-1.261536 0.381428,-1.910908 -0.01261,-0.559807 -0.402681,-1.63087 -0.402681,-1.63087"
           id="path18"
           sodipodi:nodetypes="cac" /><path
           style="fill:none;fill-opacity:1;stroke:#000000;stroke-width:0.97492;stroke-linecap:round;stroke-dasharray:none;stroke-opacity:1"
           d="m 34.152469,79.037145 c 0,0 1.399273,-0.680693 1.987959,-1.177223 0.562042,-0.474058 1.427885,-1.68129 1.427885,-1.68129"
           id="path19"
           sodipodi:nodetypes="cac" /><path
           style="fill:none;fill-opacity:1;stroke:#000000;stroke-width:0.97492;stroke-linecap:round;stroke-dasharray:none;stroke-opacity:1"
           d="m 35.96556,80.180739 c 0,0 1.523891,-0.634579 2.323823,-0.822397 0.704734,-0.165467 2.155799,-0.262322 2.155799,-0.262322"
           id="path20"
           sodipodi:nodetypes="cac" /><path
           style="fill:#ffffff;fill-opacity:1;stroke:#000000;stroke-width:0.97492;stroke-linecap:square;stroke-dasharray:none;stroke-opacity:1"
           d="m 27.75533,92.388562 c -0.921283,-0.85297 -1.791244,-2.06083 -1.785722,-3.31634 0.0064,-1.4439 0.852713,-3.04674 2.087159,-3.79577 1.986508,-1.20536 4.766158,-0.89765 6.969003,-0.15832 1.9032,0.63875 3.845774,1.93404 4.719403,3.74151 0.678421,1.4036 0.934477,3.42904 0,4.67689 -1.177444,1.57228 -3.694749,1.78746 -5.654784,1.65816 -2.304568,-0.15202 -4.640321,-1.23705 -6.335059,-2.80613 z"
           id="path6"
           sodipodi:nodetypes="aaaaaaaa" /><path
           style="fill:#000000;fill-opacity:1;stroke:#000000;stroke-width:0.324973;stroke-linecap:square;stroke-dasharray:none;stroke-opacity:1"
           d="m 27.490602,88.400582 c -0.292299,-0.11613 -0.513812,-0.42069 -0.60949,-0.72031 -0.120596,-0.37764 -0.145335,-0.87357 0.09985,-1.18509 0.304026,-0.38628 0.909653,-0.50941 1.399278,-0.46566 0.491308,0.0439 1.080306,0.26668 1.298991,0.70882 0.215396,0.43549 0.128794,1.10408 -0.221636,1.44061 -0.475897,0.45703 -1.353798,0.46525 -1.966989,0.22163 z"
           id="path8"
           sodipodi:nodetypes="aaaaaaa" /></g></g></g></svg>
