<?xml version="1.0" encoding="UTF-8" standalone="no"?>
<!-- Created with Inkscape (http://www.inkscape.org/) -->

<svg
   width="99.24617mm"
   height="228.49088mm"
   viewBox="0 0 99.24617 228.49088"
   version="1.1"
   id="svg1"
   xml:space="preserve"
   sodipodi:docname="happy.svg"
   inkscape:version="1.4 (e7c3feb1, 2024-10-09)"
   xmlns:inkscape="http://www.inkscape.org/namespaces/inkscape"
   xmlns:sodipodi="http://sodipodi.sourceforge.net/DTD/sodipodi-0.dtd"
   xmlns="http://www.w3.org/2000/svg"
   xmlns:svg="http://www.w3.org/2000/svg"><sodipodi:namedview
     id="namedview1"
     pagecolor="#ffffff"
     bordercolor="#000000"
     borderopacity="0.25"
     inkscape:showpageshadow="2"
     inkscape:pageopacity="0.0"
     inkscape:pagecheckerboard="0"
     inkscape:deskcolor="#d1d1d1"
     inkscape:document-units="mm"
     inkscape:zoom="0.20083919"
     inkscape:cx="-216.5912"
     inkscape:cy="268.87183"
     inkscape:window-width="1568"
     inkscape:window-height="827"
     inkscape:window-x="0"
     inkscape:window-y="38"
     inkscape:window-maximized="0"
     inkscape:current-layer="layer1" /><defs
     id="defs1" /><g
     inkscape:label="Ebene 1"
     inkscape:groupmode="layer"
     id="layer1"
     transform="translate(-49.286935,-38.796375)"><path
       style="fill:#000000"
       d="m 113.44746,266.84654 c -2.7443,-1.10673 -6.42248,-4.12014 -8.41401,-6.89329 -0.46392,-0.646 -1.2954,-1.40509 -1.84772,-1.68687 -1.33831,-0.68275 -1.68401,-1.48522 -1.3475,-3.12794 0.40872,-1.99525 -0.0185,-12.95139 -0.66856,-17.14524 -0.84434,-5.44723 -5.0702,-24.52661 -5.5354,-24.99181 -0.11092,-0.11093 -2.28005,-0.72664 -4.82028,-1.36826 -3.70819,-0.93662 -5.1807,-1.18468 -7.47015,-1.2584 l -2.85154,-0.0918 0.0173,12.30313 c 0.0286,20.27291 0.65172,28.84502 2.23365,30.72503 0.35911,0.42678 0.73121,1.19326 0.82689,1.7033 0.14772,0.78739 0.0318,1.13045 -0.7682,2.27322 -1.92565,2.75077 -9.2178,6.62852 -13.58578,7.22451 -2.22327,0.30335 -3.79269,-0.76584 -3.78961,-2.58174 0.004,-2.55112 7.61077,-9.35198 11.03388,-9.86531 l 1.18228,-0.17729 -0.18059,-0.95868 c -0.73326,-3.89245 -0.95684,-8.3532 -1.18189,-23.58054 -0.13227,-8.94954 -0.24743,-16.42071 -0.25591,-16.60261 -0.009,-0.1819 -0.3112,-0.33073 -0.67271,-0.33073 -0.3615,0 -1.04611,-0.34743 -1.52135,-0.77207 l -0.86407,-0.77207 0.0935,-13.317 c 0.0514,-7.32434 0.166,-13.43605 0.25457,-13.58157 0.0886,-0.14552 -0.32334,0.1188 -0.91535,0.58738 -1.31324,1.03944 -2.20657,1.3973 -3.48487,1.39601 -2.60701,-0.003 -4.44513,-2.86524 -3.12932,-4.87342 0.57681,-0.88032 1.42268,-1.21101 3.09762,-1.21101 1.22527,0 1.30569,-0.0418 1.30569,-0.67885 0,-0.97703 -0.41721,-1.61693 -1.17883,-1.80809 -0.80634,-0.20238 -1.3344,-1.17566 -1.59014,-2.93081 -0.10551,-0.72419 -0.4103,-1.73622 -0.6773,-2.24896 -0.57812,-1.11018 -10.30065,-10.74455 -16.217158,-16.0701 -1.06142,-0.9554 -1.238511,-1.25826 -1.237664,-2.11667 0.0013,-1.32536 0.801404,-2.5802 2.051947,-3.21818 1.955945,-0.99784 13.724975,-5.54843 17.393935,-6.7255 2.0373,-0.6536 5.10724,-1.67724 6.82211,-2.27477 1.71486,-0.59752 3.5654,-1.0864 4.11231,-1.0864 0.96092,0 1.00611,-0.0423 1.34322,-1.25678 0.19187,-0.69122 0.40394,-1.4456 0.47126,-1.67639 0.0886,-0.30378 -0.22992,-0.55202 -1.15387,-0.89922 -0.70194,-0.2638 -2.46689,-1.06991 -3.9221,-1.79139 -7.37155,-3.65471 -12.6787,-8.74693 -15.78532,-15.14604 -2.58988,-5.33471 -3.32342,-10.76415 -3.01769,-22.33621 0.0997,-3.77499 0.34369,-7.67775 0.55607,-8.8956 1.27148,-7.29122 6.3014,-15.91356 13.85326,-23.74742 2.87647,-2.983882 4.31492,-3.916866 12.19889,-7.912267 7.44113,-3.770986 8.47035,-4.097188 16.13958,-5.115296 2.69213,-0.357388 4.96652,-0.650422 5.05419,-0.651188 0.0877,-7.66e-4 0.23816,-1.04319 0.33442,-2.316497 0.2963,-3.919525 1.93425,-7.725611 3.4931,-8.116856 1.63392,-0.410088 2.7452,1.525971 1.85927,3.239185 -0.2214,0.428131 -0.6447,1.652268 -0.94067,2.720303 l -0.53812,1.941883 1.65276,-1.602738 c 3.03073,-2.939008 3.73173,-3.239659 5.08029,-2.178878 0.62281,0.489898 0.70832,0.723662 0.62909,1.719792 -0.0972,1.221718 0.0386,1.400609 0.57358,0.755955 0.18718,-0.225532 0.76402,-0.396875 1.33611,-0.396875 1.24777,0 2.20701,1.026742 2.03761,2.18097 -0.0978,0.666584 -0.009,0.758289 0.97129,1.004332 1.98921,0.499196 5.825,1.90987 7.59648,2.793732 2.24243,1.118833 5.52373,3.756285 7.02467,5.646303 2.59234,3.264333 6.61387,10.58379 8.11886,14.77688 3.08487,8.59481 4.85807,25.18501 3.3571,31.40924 -1.33618,5.54087 -2.65477,8.6536 -5.54798,13.09688 -0.99493,1.52797 -2.38945,3.79015 -3.09894,5.02708 -1.84714,3.2203 -5.81743,7.17109 -8.69832,8.6556 -1.16416,0.59988 -2.74975,1.33998 -3.52352,1.64466 -0.77377,0.30468 -2.32158,1.08116 -3.43958,1.72551 -1.88292,1.08521 -4.67964,2.25399 -10.81799,4.52097 -2.98203,1.1013 -8.64466,2.50326 -10.11089,2.50326 -0.59394,0 -1.07989,0.11906 -1.07989,0.26459 0,0.14552 0.33927,0.26458 0.75393,0.26458 1.19195,0 2.76078,1.25327 5.67152,4.53073 1.48647,1.67375 5.02439,5.48728 7.86205,8.47451 3.24716,3.41833 5.52926,6.05983 6.15738,7.12711 2.51952,4.28108 1.91468,5.84058 -2.91125,7.5062 -3.62131,1.24985 -6.07572,2.38457 -9.72843,4.49764 -1.60073,0.92601 -3.468,1.95217 -4.14949,2.28036 l -1.23908,0.5967 0.14882,1.25659 c 0.13081,1.10449 0.0661,1.33935 -0.53483,1.94025 -0.37601,0.37601 -0.9787,0.68366 -1.33931,0.68366 -0.43122,0 -0.71531,0.18796 -0.82993,0.54911 -0.21291,0.67081 -0.32117,0.60331 1.57456,0.98169 2.67222,0.53336 4.49072,2.12085 4.49072,3.92024 0,1.05702 -0.87247,2.09739 -1.93756,2.31041 -0.91957,0.18391 -3.6635,-0.44083 -5.05577,-1.15112 l -1.05,-0.53567 v 1.79583 c 0,8.16968 1.44793,17.83526 3.18272,21.24599 1.38277,2.71864 0.46092,5.27936 -1.90056,5.27936 -0.3947,0 -0.49946,0.11874 -0.37982,0.43052 0.39688,1.03424 4.17074,18.60427 4.7949,22.32364 0.52361,3.12022 0.74181,5.65138 0.91235,10.58334 0.12329,3.56526 0.23437,6.51097 0.24686,6.54602 0.0125,0.0351 1.24311,0.67281 2.73469,1.41724 3.47508,1.73435 6.8297,3.95497 7.86846,5.20858 1.00965,1.21849 1.70482,3.4655 1.46599,4.73858 -0.26272,1.40042 -1.27364,2.2009 -2.7585,2.18428 -0.66997,-0.007 -1.69438,-0.2057 -2.27647,-0.44045 z M 97.06851,207.83551 c -1.96145,-6.36272 -2.66331,-14.68121 -2.46592,-29.22624 0.13676,-10.07726 0.34195,-12.75564 1.54637,-20.1847 0.38009,-2.34447 0.63094,-5.58767 0.7879,-10.18645 0.12665,-3.71079 0.30182,-7.22788 0.38928,-7.81577 l 0.15901,-1.0689 -3.10317,-0.31014 c -2.46192,-0.24605 -3.30036,-0.43835 -4.05739,-0.93057 -1.15864,-0.75335 -4.27399,-1.39502 -4.55617,-0.93844 -0.31404,0.50812 -2.53708,9.83935 -3.66296,15.37526 -1.56776,7.70861 -4.05011,26.33505 -4.50372,33.79388 -0.14584,2.39816 -0.26623,7.72382 -0.26754,11.83478 l -0.002,7.47448 h 4.39021 c 4.76188,0 7.10271,0.35007 12.14625,1.81646 3.23227,0.93977 3.38228,0.95694 3.20022,0.36635 z M 74.27786,171.32669 c 0.16296,-1.58976 1.18588,-7.89159 2.39491,-14.7542 0.42426,-2.40814 2.42254,-12.04596 2.67398,-12.89676 0.1139,-0.38539 -0.35652,-0.28267 -2.85751,0.62395 -1.64662,0.59691 -4.83933,1.71057 -7.0949,2.47481 -3.65036,1.23683 -13.44142,5.03448 -13.7424,5.33026 -0.064,0.0629 3.11208,3.26816 7.05796,7.12282 3.94588,3.85466 7.44374,7.44441 7.77303,7.97721 0.32929,0.53281 0.84545,1.63273 1.14701,2.44427 0.56237,1.51339 1.99833,3.7424 2.29724,3.56596 0.092,-0.0543 0.24978,-0.90403 0.35068,-1.88832 z m 32.99673,-2.75976 c 3.65437,-2.09599 6.55366,-3.45295 9.21558,-4.31318 0.80037,-0.25864 1.5576,-0.56397 1.68275,-0.67851 0.41325,-0.37821 -1.43733,-2.65267 -5.9357,-7.29526 C 109.79528,153.75975 106.53853,150.25875 105,148.5 l -2.79733,-3.19775 -0.003,1.79866 c -0.004,2.9149 -0.51212,9.29113 -0.93799,11.77623 -0.50617,2.95359 -1.44064,11.1121 -1.44064,12.57765 v 1.12467 l 1.91823,-0.96907 c 1.05502,-0.53298 3.54575,-1.90254 5.53494,-3.04346 z m -0.49977,-34.39065 c 1.77818,-0.45797 4.54275,-1.36328 6.14348,-2.01179 1.60073,-0.64851 3.70654,-1.45477 4.67958,-1.79169 0.97304,-0.33692 2.58039,-1.08594 3.57188,-1.6645 0.99149,-0.57855 3.0181,-1.58643 4.50358,-2.23974 1.48548,-0.6533 3.29876,-1.62671 4.02951,-2.16313 1.79977,-1.32115 3.95355,-3.74832 5.05795,-5.69997 0.50142,-0.88607 1.8523,-3.06442 3.00197,-4.84076 2.56659,-3.96563 3.30101,-5.51723 4.53437,-9.57971 1.17481,-3.86964 1.39088,-6.73365 0.93938,-12.45181 -0.5645,-7.14936 -1.68264,-13.33783 -3.24779,-17.97527 -1.04917,-3.10862 -3.70122,-8.315597 -6.03562,-11.850167 -2.86716,-4.341236 -5.44502,-6.229472 -10.95144,-8.021734 -2.89846,-0.943405 -2.98593,-0.954797 -6.24691,-0.813549 -4.35371,0.188579 -20.85707,2.403543 -23.18098,3.111187 -2.41574,0.735603 -14.00595,6.662019 -15.83252,8.095629 -2.65932,2.087214 -8.21977,8.858274 -10.71718,13.050504 -1.52699,2.56326 -3.25453,6.78136 -3.8655,9.4383 -0.56304,2.44854 -0.83526,16.0591 -0.40365,20.1813 0.71353,6.81459 2.9158,11.38127 7.73606,16.04171 2.79824,2.70547 4.69072,3.97577 9.04719,6.07282 4.11064,1.97871 7.45918,3.18595 9.91058,3.57303 0.97554,0.15404 2.29024,0.52835 2.92157,0.8318 0.81521,0.39183 2.0037,0.61497 4.10104,0.76997 1.62425,0.12003 3.31036,0.33221 3.74693,0.4715 1.4402,0.45951 3.28138,0.30958 6.55652,-0.53393 z M 90.62559,120.69247 c -4.64118,-0.7733 -8.62425,-4.6761 -10.23181,-10.02563 -0.69777,-2.32198 -0.59654,-7.811 0.22116,-11.99267 0.6591,-3.37061 1.21243,-4.63713 2.27415,-5.20534 1.86092,-0.99593 3.9,1.06003 2.90158,2.92559 -0.67492,1.26109 -1.34992,6.47123 -1.2664,9.77494 0.074,2.92741 0.16446,3.47977 0.78751,4.80884 1.38947,2.964 3.82956,4.81547 6.78697,5.14977 1.79217,0.20259 4.98681,-0.26934 6.81095,-1.00614 4.6576,-1.88129 9.99299,-7.27118 13.02535,-13.15838 l 1.14427,-2.22155 -0.80812,-0.83376 c -0.62607,-0.64594 -0.80811,-1.07098 -0.80811,-1.88677 0,-1.90864 1.41239,-3.02284 3.83184,-3.02284 0.99469,0 1.36976,0.15281 2.16593,0.88245 0.84681,0.77604 0.97821,1.06685 1.08974,2.4117 0.17441,2.10314 -0.30816,4.08717 -1.67638,6.89231 -1.98849,4.07681 -6.49858,9.55268 -10.15468,12.32918 -2.19282,1.66526 -5.98386,3.53826 -8.22103,4.06167 -1.85515,0.43404 -5.63209,0.48999 -7.87292,0.11663 z m 30.59747,-28.92973 c -0.86899,-0.48873 -1.39561,-1.72319 -1.17111,-2.74528 0.0945,-0.43048 0.52428,-1.33834 0.95496,-2.01746 1.72511,-2.7202 2.45421,-4.46465 2.4748,-5.92113 0.0181,-1.28179 -0.0622,-1.48372 -0.88147,-2.21617 -0.84903,-0.75905 -0.99143,-0.79647 -2.45066,-0.64395 -3.15398,0.32966 -5.94291,2.29873 -10.26435,7.24697 -0.63633,0.72863 -1.59492,0.76393 -2.42773,0.0894 -0.77316,-0.62623 -0.81909,-2.3317 -0.10018,-3.71973 1.17892,-2.27619 5.13323,-5.62773 8.49958,-7.20397 1.53752,-0.71991 2.20354,-0.87068 4.24176,-0.96017 3.01416,-0.13234 3.93001,0.15784 5.75112,1.82224 2.00682,1.83412 2.62526,3.37186 2.50593,6.23095 -0.0886,2.12336 -0.15117,2.30979 -1.94366,5.79351 -1.01864,1.97975 -2.04567,3.77662 -2.28229,3.99304 -0.63042,0.57664 -2.10237,0.70413 -2.9067,0.25176 z M 96.48453,83.68505 c -0.76914,-0.31076 -1.69019,-1.5405 -1.69019,-2.25664 0,-0.97018 0.69265,-2.6415 1.70411,-4.1119 1.83874,-2.67306 1.62181,-3.51557 -0.93787,-3.64256 -2.20572,-0.10943 -4.29367,0.31238 -6.81964,1.3777 -3.28508,1.38547 -7.7493,4.44976 -8.48481,5.82407 -0.75758,1.41555 -2.85689,1.44093 -3.49417,0.0422 -0.44695,-0.98094 0.16897,-2.82963 1.41397,-4.24403 1.32407,-1.50421 4.85138,-4.16677 6.87012,-5.18582 4.54405,-2.29383 10.09654,-3.23048 13.25716,-2.23634 4.66416,1.46706 5.73822,5.87318 2.58185,10.59156 -0.58407,0.87312 -1.06233,1.74052 -1.0628,1.92754 -0.002,0.65018 -0.83446,1.60647 -1.64528,1.88912 -0.93663,0.32651 -0.94605,0.32665 -1.69245,0.0251 z m 19.23192,-36.685971 c 0.57237,-0.622285 0.58211,-0.66657 0.0905,-0.41132 -0.65792,0.341595 -1.33791,1.108687 -0.9828,1.108687 0.13797,0 0.5395,-0.313815 0.89229,-0.697367 z"
       id="path1" /></g></svg>
