<?xml version="1.0" encoding="UTF-8" standalone="no"?>
<!-- Created with Inkscape (http://www.inkscape.org/) -->

<svg
   width="210mm"
   height="297mm"
   viewBox="0 0 210 297"
   version="1.1"
   id="svg1"
   xml:space="preserve"
   inkscape:version="1.4 (e7c3feb1, 2024-10-09)"
   sodipodi:docname="doodles.svg"
   xmlns:inkscape="http://www.inkscape.org/namespaces/inkscape"
   xmlns:sodipodi="http://sodipodi.sourceforge.net/DTD/sodipodi-0.dtd"
   xmlns="http://www.w3.org/2000/svg"
   xmlns:svg="http://www.w3.org/2000/svg"><sodipodi:namedview
     id="namedview1"
     pagecolor="#ffffff"
     bordercolor="#000000"
     borderopacity="0.25"
     inkscape:showpageshadow="2"
     inkscape:pageopacity="0.0"
     inkscape:pagecheckerboard="0"
     inkscape:deskcolor="#d1d1d1"
     inkscape:document-units="mm"
     inkscape:zoom="0.73683246"
     inkscape:cx="318.25417"
     inkscape:cy="139.10896"
     inkscape:window-width="1616"
     inkscape:window-height="880"
     inkscape:window-x="0"
     inkscape:window-y="38"
     inkscape:window-maximized="0"
     inkscape:current-layer="layer1" /><defs
     id="defs1" /><g
     inkscape:label="Ebene 1"
     inkscape:groupmode="layer"
     id="layer1"><path
       style="fill:#000000"
       d="m 13.845712,112.92724 c 0,-0.59938 0.876888,-1.78946 1.948639,-2.64461 1.948639,-1.55482 1.948639,-1.55482 1.924408,-9.34944 -0.01333,-4.287038 -0.232419,-8.871448 -0.48687,-10.187558 -0.254452,-1.31612 -0.864562,-2.6941 -1.355801,-3.06218 -0.7118,-0.53334 -0.92383,-1.96798 -1.0442,-7.06528 -0.13715,-5.80797 -0.249666,-6.41497 -1.223703,-6.60168 -0.589966,-0.11309 -1.466861,-0.66876 -1.948655,-1.23483 -0.481795,-0.56607 -2.743529,-2.16769 -5.026077,-3.55917 -2.282548,-1.39148 -4.600056,-2.52996 -5.150017,-2.52996 -0.61325403,0 -0.99993003,-0.41146 -0.99993003,-1.06402 0,-0.58521 0.71455403,-1.65002 1.58789803,-2.36623 0.873344,-0.7162 3.745212,-2.80544 6.381927,-4.64275 2.636716,-1.8373 4.803387,-3.50465 4.814825,-3.70521 0.01144,-0.20057 -1.091018,-1.01623 -2.449903,-1.81259 -1.358886,-0.79636 -3.338149,-2.51133 -4.398363,-3.81103 -1.060214,-1.2997 -2.739483,-3.96647 -3.731708,-5.92614 -1.12128,-2.21457 -2.02387303,-5.08895 -2.38488903,-7.59488 -0.437331,-3.03566 -0.406647,-4.81022 0.124187,-7.18224 0.387768,-1.73272 1.67342903,-5.08521 2.85702703,-7.44996 1.183597,-2.36476 3.544612,-5.838451 5.246698,-7.719318 1.702087,-1.880867 4.670286,-4.4148281 6.595997,-5.6310251 1.925711,-1.216196 4.867945,-2.674981 6.538298,-3.241744 1.670353,-0.566763 3.119939,-1.074915 3.221304,-1.129226 0.101364,-0.05431 -0.109753,-0.648187 -0.469148,-1.319723 -0.456477,-0.852936 -0.477187,-1.39723398 -0.06871,-1.80571598 0.408482,-0.408482 0.822318,-0.387569 1.372907,0.06938 0.433491,0.359766 1.197668,0.496979 1.69817,0.304919 0.500503,-0.192061 1.471789,0.01302 2.158413,0.45572598 0.686625,0.44271 2.465317,1.106976 3.952648,1.476145 1.487332,0.36917 4.430959,1.54078 6.541394,2.603578 2.816439,1.418337 4.349561,2.634055 5.763431,4.570226 1.05945,1.4508271 2.59367,3.8556751 3.40937,5.3441071 1.22257,2.230856 1.56257,3.780301 1.93556,8.820611 0.38482,5.20026 0.29411,6.73356 -0.60677,10.25596 -0.58258,2.27786 -1.56737,5.2903 -2.18843,6.69431 -0.68049,1.53836 -2.84483,4.24156 -5.446686,6.80275 -2.374618,2.33751 -5.895554,5.16307 -7.824303,6.27902 -3.506815,2.029 -3.506815,2.029 0.241881,5.28919 2.061782,1.79311 4.601301,4.07132 5.643376,5.0627 1.042074,0.99138 1.79069,2.11881 1.66359,2.50541 -0.127099,0.3866 -1.622102,1.37312 -3.322227,2.19227 -1.700126,0.81914 -3.736271,2.13448 -4.524767,2.92298 -0.788497,0.78849 -1.82083,1.43363 -2.294075,1.43363 -0.665093,0 -0.860445,0.65327 -0.860445,2.87737 0,1.58256 -0.281371,4.49313 -0.62527,6.46794 -0.527417,3.02866 -0.870451,3.73128 -2.191968,4.48973 -1.566699,0.89916 -1.566699,0.89916 -1.740955,10.37401 -0.09584,5.211158 -0.08856,9.975928 0.01618,10.588358 0.10474,0.61244 0.981635,1.61978 1.948655,2.23854 0.995236,0.63682 1.758219,1.59994 1.758219,2.21941 0,0.60192 -0.38843,1.16919 -0.863178,1.26062 -0.474747,0.0914 -1.727454,-0.41709 -2.783793,-1.13005 -1.920615,-1.29629 -1.920615,-1.29629 -1.920615,-12.49875 0,-6.161358 -0.125271,-11.320888 -0.27838,-11.465628 -0.153108,-0.14474 -1.559272,-0.43553 -3.124807,-0.64621 -2.846428,-0.38305 -2.846428,-0.38305 -2.390711,2.4998 0.250645,1.58557 0.47862,6.55254 0.506611,11.037698 0.02799,4.48517 0.03901,8.43473 0.02449,8.77681 -0.01452,0.34208 -1.023201,1.28161 -2.241504,2.08785 -1.218304,0.80623 -2.596282,1.46588 -3.062173,1.46588 -0.469753,0 -0.847075,-0.48544 -0.847075,-1.08978 z M 26.866681,85.549662 c 1.012199,-0.46119 1.482963,-1.23038 1.761295,-2.87781 0.208925,-1.23661 0.199122,-7.55067 -0.02178,-14.03124 -0.401646,-11.78285 -0.401646,-11.78285 -6.252095,-12.46291 -3.217747,-0.37404 -5.918412,-0.60399 -6.001477,-0.51101 -0.08307,0.093 0.0571,5.17988 0.311484,11.30422 0.254382,6.12435 0.475933,12.81324 0.492336,14.8642 0.02982,3.72903 0.02982,3.72903 2.952806,3.93351 1.60764,0.11247 3.474912,0.25083 4.149492,0.30748 0.67458,0.0566 1.848154,-0.18025 2.607942,-0.52644 z M 13.612869,68.919572 c 0.622119,0 0.787793,-1.03332 0.781076,-4.87164 -0.0047,-2.6794 -0.212205,-5.19262 -0.461148,-5.58493 -0.334425,-0.52703 -1.730909,0.19597 -5.34769,2.76864 -3.509372,2.49627 -4.67909,3.60909 -4.132111,3.9311 0.419627,0.24704 2.140935,1.29264 3.82513,2.32354 1.684195,1.03091 3.39584,1.77513 3.803657,1.65383 0.407816,-0.1213 1.096805,-0.22054 1.531086,-0.22054 z m 20.409818,-0.81363 c 0.424099,0.16274 1.848775,-0.1866 3.165945,-0.77632 2.394856,-1.0722 2.394856,-1.0722 0.551926,-2.66411 -1.013612,-0.87555 -2.926345,-2.56807 -4.250517,-3.76116 -1.324173,-1.19309 -2.542956,-2.03388 -2.708407,-1.86843 -0.165451,0.16545 -0.126621,2.44773 0.08629,5.07174 0.353596,4.35788 0.473536,4.72466 1.385393,4.23665 0.549055,-0.29385 1.345272,-0.40111 1.76937,-0.23837 z m -2.187032,-15.02993 c 1.588678,-0.7523 4.377253,-2.56873 6.196834,-4.0365 1.81958,-1.46776 4.358127,-3.9572 5.641215,-5.53208 1.528235,-1.87577 2.835595,-4.3729 3.790345,-7.23976 1.15408,-3.46539 1.45746,-5.45458 1.45746,-9.5563 0,-2.84898 -0.26787,-6.23043 -0.59526,-7.51435 -0.32739,-1.283909 -1.768,-4.088173 -3.20136,-6.231694 -2.33807,-3.4964711 -3.035579,-4.1111151 -6.781798,-5.9761061 -3.325616,-1.655602 -4.816555,-2.080639 -7.32372,-2.087845 -1.875008,-0.0054 -4.741708,0.53013 -7.089002,1.324276 -2.167535,0.733329 -5.135395,2.030158 -6.595246,2.881841 -1.45985,0.851684 -4.157521,3.0702781 -5.994825,4.9302091 -1.837303,1.859932 -4.2878,5.010209 -5.445548,7.000629 -1.157748,1.99041 -2.505273,4.98382 -2.994501,6.65203 -0.630852,2.15112 -0.794552,4.1657 -0.562962,6.9281 0.232838,2.77729 0.837809,4.93353 2.108197,7.51406 0.97991,1.99048 2.792434,4.71562 4.02783,6.05587 1.235397,1.34024 3.388024,3.1081 4.783615,3.92856 1.959049,1.15172 3.552708,1.56547 6.991507,1.81513 2.449738,0.17785 5.409114,0.36575 6.576391,0.41756 1.270566,0.0564 3.281574,-0.45475 5.010828,-1.27363 z M 15.062876,39.562722 c 0.173873,-0.90285 1.086315,-0.9865 10.760771,-0.9865 9.025085,0 10.570789,0.12212 10.570789,0.83514 0,0.70832 -1.634086,0.85812 -10.760771,0.9865 -10.044541,0.14129 -10.748127,0.0857 -10.570789,-0.83514 z m 0.808532,-10.45139 c -0.17626,-0.45933 -0.17626,-1.21095 0,-1.67028 0.264937,-0.69041 -0.31699,-0.83514 -3.358025,-0.83514 -2.831645,0 -3.678498,-0.1847 -3.678498,-0.80228 0,-0.44125 0.191809,-0.92082 0.426243,-1.06571 0.234434,-0.14489 3.052217,-0.33395 6.261741,-0.42015 5.071227,-0.13618 5.858807,-0.0357 6.013474,0.76745 0.114819,0.5962 -0.30759,1.04602 -1.19035,1.26758 -0.943867,0.23689 -1.46915,0.84754 -1.69335,1.96854 -0.223564,1.11782 -0.658373,1.62512 -1.392893,1.62512 -0.587328,0 -1.212082,-0.37581 -1.388342,-0.83513 z m 15.858424,0.12352 c -0.343532,-0.34354 -0.624603,-1.18343 -0.624603,-1.86643 0,-0.86201 -0.381402,-1.29623 -1.247019,-1.41973 -0.693745,-0.099 -1.336433,-0.64667 -1.448548,-1.23443 -0.192353,-1.00841 0.111568,-1.03841 6.675416,-0.65889 3.782319,0.21869 7.093128,0.60966 7.357353,0.86881 0.264225,0.25916 0.293052,0.77434 0.06406,1.14486 -0.289994,0.46922 -1.660799,0.5938 -4.516909,0.41051 -4.10056,-0.26316 -4.10056,-0.26316 -4.10056,1.26393 0,0.8399 -0.345282,1.65959 -0.767294,1.82153 -0.422012,0.16194 -1.048365,0.0134 -1.391896,-0.33016 z"
       id="path2" /><path
       style="fill:#000000"
       d="m 77.692189,103.40395 c 0,-0.60772 0.59675,-1.49595 1.32611,-1.97385 1.27526,-0.83558 1.31519,-1.06646 1.04118,-6.021212 -0.19409,-3.50975 -0.52777,-5.2948 -1.04665,-5.59927 -0.54663,-0.32075 -0.76172,-1.76632 -0.76172,-5.11933 0,-4.67237 0,-4.67237 -3.6313,-3.49174 -2.81084,0.91387 -3.78184,1.03009 -4.29754,0.51438 -0.51571,-0.5157 -0.29509,-1.45001 0.97646,-4.13516 0.90348,-1.9079 2.56301,-4.90192 3.68784,-6.65336 2.04515,-3.18444 2.04515,-3.18444 0.28892,-3.53568 -1.16562,-0.23313 -2.99336,-1.6159 -5.435,-4.11184 -2.35581,-2.40819 -4.3692,-5.16336 -5.59861,-7.66124 -1.78943,-3.6357 -1.91799,-4.26208 -1.89285,-9.22208 0.0236,-4.6628 0.25326,-5.89156 1.85527,-9.92776 1.00557,-2.53348 2.65277,-5.80313 3.66044,-7.26588 1.03683,-1.50509 3.35754,-3.68197 5.34621,-5.01487 1.93275,-1.29542 5.17789,-2.97839 7.21142,-3.73992 2.03354,-0.76153 4.78728,-1.66621 6.11943,-2.01039 1.76876,-0.45699 2.33665,-0.84843 2.10535,-1.4512 -0.17826,-0.46453 0.0704,-0.97395 0.56862,-1.16515 0.48694,-0.18686 1.11333,0.0113 1.39197,0.44034 0.41012,0.6315 0.69653,0.53534 1.503665,-0.50485 0.94481,-1.21764 1.08339,-1.24015 2.64538,-0.42978 0.90659,0.47035 1.65075,1.26245 1.65369,1.76024 0.004,0.63283 1.36517,1.36177 4.526156,2.4234 2.48646,0.83508 5.26869,2.05085 6.18273,2.70171 0.91405,0.65086 2.66102,2.26884 3.88217,3.59552 1.22114,1.32667 3.03918,3.60405 4.04008,5.06083 1.00091,1.45679 2.20478,3.72039 2.67527,5.03023 0.4705,1.30984 1.09135,3.8076 1.37967,5.55058 0.45361,2.74222 0.33716,3.75849 -0.86462,7.54534 -0.76387,2.40696 -2.28105,5.69551 -3.37153,7.30789 -1.09047,1.61238 -3.29725,3.97693 -4.90396,5.25456 -1.60669,1.27762 -4.23949,2.93108 -5.85065,3.67436 -1.61117,0.74327 -4.629306,1.62405 -6.706966,1.95728 -2.07767,0.33323 -3.86292,0.67361 -3.96722,0.7564 -0.1043,0.0828 0.80586,1.86769 2.02258,3.96645 1.21672,2.09875 2.75387,5.05527 3.41589,6.57004 0.83918,1.92014 1.0263,2.9315 0.61794,3.33986 -0.40836,0.40836 -1.40803,0.29367 -3.30126,-0.37875 -1.49355,-0.53046 -2.87042,-0.96447 -3.05971,-0.96447 -0.1893,0 -0.34417,2.2636 -0.34417,5.03023 0,3.9744 -0.1667,5.03023 -0.79422,5.03023 -0.600705,0 -0.843255,1.05537 -0.995515,4.33158 -0.19212,4.13389 -0.12699,4.41281 1.427055,6.111222 0.98717,1.07886 1.49613,2.12426 1.29252,2.65484 -0.18471,0.48136 -0.66504,0.87521 -1.0674,0.87521 -0.40235,0 -1.353405,-0.42557 -2.113465,-0.9457 -0.76005,-0.52014 -1.53157,-1.16357 -1.71449,-1.42986 -0.18291,-0.26628 -0.21216,-2.984612 -0.065,-6.040722 0.26757,-5.55657 0.26757,-5.55657 -3.46341,-5.55657 -3.73097,0 -3.73097,0 -3.34913,4.33158 0.21001,2.38237 0.56166,4.83461 0.78143,5.449412 0.21977,0.61481 0.28722,1.43751 0.14988,1.82823 -0.13733,0.39072 -0.96902,1.08238 -1.84819,1.53702 -0.87917,0.45463 -1.98825,0.82661 -2.46462,0.82661 -0.49015,0 -0.86613,-0.47964 -0.86613,-1.10494 z m 12.85503,-19.871882 c 0,-3.72622 -0.18351,-4.83873 -0.83968,-5.09053 -0.48901,-0.18765 -1.26817,0.20694 -1.86568,0.94484 -0.59076,0.72955 -1.827989,1.127129 -2.20703,0.89287 -0.193552,-0.119622 -0.394299,-0.460746 -0.304904,-0.687339 0.135016,-0.342231 0.701682,-0.653397 1.126914,-1.373261 0.526672,-0.891589 0.800165,-1.778505 0.60775,-1.97092 -0.125628,-0.125628 -1.359196,-0.203833 -1.68773,0.275446 -0.167429,0.244252 -0.605335,0.234755 -0.689185,0.07845 -0.353908,-0.659708 -1.03063,0.13143 -1.406335,0.81133 -0.202425,0.366322 0.25151,0.91642 0.55891,1.1064 0.3074,0.18999 0.7876,0.64251 0.7876,1.08548 0,0.44296 0.0129,0.87072 -0.41056,0.87072 -0.42347,0 -1.6711,-0.37727 -2.05378,-0.83837 -0.38269,-0.4611 -0.9165,-0.83837 -1.18627,-0.83837 -0.26976,0 -0.49048,1.99691 -0.49048,4.43757 0,4.43758 0,4.43758 2.09593,4.65682 1.15276,0.12058 3.41637,0.26152 5.03023,0.31319 2.9343,0.094 2.9343,0.094 2.9343,-4.67435 z m -14.81123,-4.96737 c 1.72316,-0.59828 2.3166,-1.14088 2.58872,-2.36697 0.19418,-0.87491 0.38281,-2.71556 0.41918,-4.09034 0.0654,-2.47393 0.0551,-2.48827 -1.00546,-1.39728 -0.58938,0.60627 -1.99577,2.8 -3.12532,4.87497 -1.12955,2.07497 -1.84201,3.76889 -1.58325,3.76426 0.25876,-0.005 1.47652,-0.35772 2.70613,-0.78464 z m 19.311085,-3.06279 c -0.94676,-1.87552 -1.84352,-3.41004 -1.99279,-3.41004 -0.14928,0 -0.27141,1.34693 -0.27141,2.99317 0,2.89224 0.0613,3.0116 1.81647,3.5395 0.99906,0.30047 1.89581,0.48806 1.99279,0.41687 0.097,-0.0712 -0.5983,-1.66398 -1.54506,-3.5395 z m -9.821799,-0.152525 c 0.546633,-0.793995 3.633144,-1.381065 3.931614,-0.441015 0.19131,0.60274 0.58239,1.0959 0.86908,1.0959 0.28669,0 0.52125,-1.70752 0.52125,-3.79449 0,-3.79449 0,-3.79449 -3.49321,-3.74559 -1.92127,0.0269 -4.05912,-0.1457 -4.75077,-0.38354 -1.05631,-0.36323 -1.25834,-0.23339 -1.26242,0.8113 -0.003,0.68404 -0.16587,2.62703 -0.36266,4.31775 -0.3578,3.07402 -0.357798,3.074023 0.85102,2.00225 0.691813,-0.613382 3.000291,-0.422234 3.215594,0.169624 0.08073,0.221929 0.320647,0.200004 0.480502,-0.03219 z m 9.793249,-10.260105 c 2.92033,-0.4835 6.692996,-1.53958 8.383716,-2.34686 1.79667,-0.85787 4.59746,-2.99432 6.74027,-5.14152 2.85986,-2.8657 3.96626,-4.4728 5.03024,-7.30668 0.9309,-2.47945 1.34839,-4.69771 1.31487,-6.98643 -0.0299,-2.04024 -0.54192,-4.62231 -1.30755,-6.59354 -0.69215,-1.78203 -2.6994,-5.05168 -4.46057,-7.26589 -2.10956,-2.65224 -4.1425,-4.53298 -5.95832,-5.51225 -1.51592,-0.81753 -4.60743,-2.04514 -6.870026,-2.72801 -3.14214,-0.94833 -4.87604,-1.16192 -7.340925,-0.90429 -1.77492,0.18551 -4.45091,0.74236 -5.94665,1.23744 -1.49574,0.49508 -4.50433,1.7704 -6.68574,2.83404 -2.18142,1.06365 -5.01144,2.96878 -6.28893,4.23363 -1.27749,1.26485 -2.92392,3.58046 -3.65873,5.14581 -0.73481,1.56535 -1.75919,4.10365 -2.27641,5.64066 -0.51721,1.53702 -1.07585,3.93455 -1.24141,5.32787 -0.17782,1.49648 0.0708,4.01271 0.6075,6.14805 0.59811,2.37974 1.82451,4.95148 3.5895,7.52716 1.51551,2.21163 3.76006,4.64131 5.16326,5.58914 2.37208,1.6023 2.78008,1.68349 9.18926,1.82875 4.1914,0.095 8.698455,-0.17772 12.016645,-0.72708 z m -7.691585,-9.8552 c -0.38067,-0.38066 -0.69212,-1.25575 -0.69212,-1.94463 0,-0.68889 0.28967,-1.43154 0.6437,-1.65035 0.35404,-0.21881 0.93347,-0.002 1.28763,0.48279 0.58304,0.79734 0.70168,0.7922 1.25461,-0.0543 0.49931,-0.76445 0.74717,-0.80394 1.35903,-0.21656 0.624525,0.59955 0.607895,0.96941 -0.10052,2.23565 -0.46688,0.8345 -1.34642,1.58978 -1.95454,1.67841 -0.60812,0.0886 -1.41713,-0.15031 -1.79779,-0.53097 z m -12.63285,-6.31574 c -0.81653,-0.75673 -1.73354,-2.03066 -2.03782,-2.83095 -0.30427,-0.8003 -0.54769,-2.38188 -0.54094,-3.51463 0.007,-1.13275 0.5246,-3.19134 1.15077,-4.57465 0.62618,-1.38332 1.79951,-3.20677 2.60741,-4.05213 1.27577,-1.33492 1.89973,-1.53702 4.74558,-1.53702 1.83569,0 3.99769,0.37286 4.9162,0.84784 0.90174,0.4663 2.02527,1.59377 2.49673,2.50548 0.47146,0.91171 1.00862,2.76235 1.19368,4.11255 0.18507,1.35019 0.0493,3.32513 -0.30175,4.38875 -0.35102,1.06362 -1.35272,2.61839 -2.22599,3.45503 -1.19382,1.14375 -2.47336,1.6492 -5.15704,2.03716 -1.9631,0.28378 -3.97269,0.52103 -4.46575,0.52721 -0.49307,0.006 -1.56456,-0.60791 -2.38108,-1.36464 z m 10.66036,-3.34599 c 0.96561,-1.12259 1.28037,-2.17598 1.28037,-4.28491 0,-1.72194 -0.21475,-2.66367 -0.55891,-2.45096 -0.30741,0.18998 -0.55892,0.68179 -0.55892,1.09291 0,0.41112 -0.86376,1.50588 -1.91947,2.43281 -1.05571,0.92693 -2.45705,1.85594 -3.11409,2.06448 -0.77912,0.24728 -1.56565,0.0434 -2.26144,-0.58633 -0.58677,-0.53102 -1.22433,-1.80493 -1.41681,-2.83091 -0.19247,-1.02599 -0.0817,-2.6349 0.24613,-3.57535 0.42069,-1.20679 0.42109,-1.60177 10e-4,-1.34237 -0.32709,0.20215 -1.06602,1.40545 -1.64207,2.67398 -0.57604,1.26854 -1.05288,3.21568 -1.05963,4.32699 -0.007,1.16336 0.4437,2.60022 1.06253,3.38694 1.01566,1.2912 1.28354,1.34479 4.86769,0.97382 3.14621,-0.32564 4.01117,-0.64636 5.07325,-1.8811 z m -4.86769,-4.44042 c 0,-0.12081 -0.39033,-0.36944 -0.8674,-0.55251 -0.49739,-0.19087 -0.72173,-0.0972 -0.52592,0.21966 0.18781,0.30388 0.57814,0.55251 0.8674,0.55251 0.28926,0 0.52592,-0.0988 0.52592,-0.21966 z m 2.66649,-3.23862 c -0.12168,-0.36504 -0.51991,-0.76327 -0.88495,-0.88495 -0.36504,-0.12168 -0.66371,0.17699 -0.66371,0.66371 0,0.48672 0.39823,0.88495 0.88495,0.88495 0.48672,0 0.78539,-0.29867 0.66371,-0.66371 z m 2.92266,-0.17466 c 0,-0.1537 -0.12576,-0.27946 -0.27946,-0.27946 -0.1537,0 -0.27946,0.12576 -0.27946,0.27946 0,0.1537 0.12576,0.27946 0.27946,0.27946 0.1537,0 0.27946,-0.12576 0.27946,-0.27946 z m 8.550565,10.39995 c -0.98413,-0.62064 -2.17881,-1.8816 -2.65484,-2.80214 -0.47603,-0.92053 -0.861365,-2.62936 -0.856305,-3.79738 0.005,-1.16803 0.573165,-3.12973 1.262475,-4.35935 0.77563,-1.3836 2.07352,-2.63711 3.40545,-3.289 1.90456,-0.93217 2.49654,-0.97629 5.145376,-0.3835 2.12261,0.47502 3.39549,1.14793 4.3763,2.31356 0.78151,0.92877 1.5485,2.74668 1.76336,4.17951 0.24883,1.65929 0.1155,3.23144 -0.38572,4.54835 -0.42129,1.10691 -1.41896,2.50008 -2.21705,3.09593 -0.89811,0.67054 -2.70832,1.18609 -4.750376,1.35291 -2.66044,0.21734 -3.64582,0.051 -5.08867,-0.85889 z m 5.22502,-1.81121 c 1.768976,0.0916 2.678616,-0.17127 3.526256,-1.01891 0.81515,-0.81515 1.14231,-1.8694 1.14231,-3.68097 0,-2.53864 0,-2.53864 -2.14911,-0.27945 -1.48343,1.5594 -2.620106,2.25919 -3.669686,2.25919 -0.83631,0 -1.99623,-0.25457 -2.5776,-0.56571 -0.5822,-0.31158 -1.22597,-1.46624 -1.43312,-2.5704 -0.26385,-1.40648 -0.51865,-1.77972 -0.85386,-1.25076 -0.26278,0.41466 -0.48163,1.46212 -0.48634,2.32768 -0.005,0.86557 0.28404,2.12313 0.64165,2.79457 0.35761,0.67145 1.0465,1.5129 1.53085,1.8699 0.48435,0.35699 1.12005,0.50111 1.41267,0.32027 0.29262,-0.18085 1.60481,-0.27329 2.91598,-0.20541 z m -0.36165,-5.51471 c 0,-0.30741 -0.51787,-0.55892 -1.15082,-0.55892 -0.63294,0 -0.99537,0.25151 -0.80538,0.55892 0.18998,0.3074 0.70785,0.55891 1.15081,0.55891 0.44296,0 0.80539,-0.25151 0.80539,-0.55891 z m 2.235646,-2.76159 c 0,-0.28926 -0.26824,-0.69171 -0.5961,-0.89434 -0.32785,-0.20262 -0.7303,-0.2342 -0.89433,-0.0702 -0.16404,0.16403 -0.13246,0.56649 0.0702,0.89434 0.20262,0.32786 0.60507,0.5961 0.89434,0.5961 0.28926,0 0.52592,-0.23667 0.52592,-0.52593 z m -27.616031,-5.54088 c -0.16237,-0.26272 0.31302,-1.04907 1.05641,-1.74745 0.89991,-0.84543 1.688,-1.13907 2.35816,-0.87865 0.90435,0.35143 0.84733,0.52884 -0.56165,1.74745 -0.8625,0.74598 -1.79082,1.35632 -2.06294,1.35632 -0.27212,0 -0.62761,-0.21495 -0.78998,-0.47767 z m 28.093441,-0.60348 c -0.9836,-0.80373 -1.15604,-1.23786 -0.68303,-1.71964 0.47751,-0.48635 0.92317,-0.4631 1.81647,0.0948 0.65105,0.40658 1.18372,1.04117 1.18372,1.41018 0,0.36902 -0.22531,0.81019 -0.50069,0.98039 -0.27538,0.1702 -1.09279,-0.17437 -1.81647,-0.76571 z"
       id="path3"
       sodipodi:nodetypes="sssssssssssscsssssssssscssssssssssssssssssssssssssssssssscsssssssssssssssscccsscsscsssssssscsssscsssssssssssssssssssscsssscssccsscccsscsssssscsscscssssscsscscssccsscsssssssssssscscsssssssscsssssssscssssssssscsscsccsssssssscssss" /></g></svg>
