<?xml version="1.0" encoding="UTF-8" standalone="no"?>
<!-- Uploaded to: SVG Repo, www.svgrepo.com, Generator: SVG Repo Mixer Tools -->

<svg
   fill="#000000"
   height="693.36951"
   width="559.99841"
   version="1.1"
   id="Layer_1"
   viewBox="0 0 358.39898 443.75648"
   xml:space="preserve"
   sodipodi:docname="Icon-Poems.svg"
   inkscape:version="1.4 (e7c3feb1, 2024-10-09)"
   xmlns:inkscape="http://www.inkscape.org/namespaces/inkscape"
   xmlns:sodipodi="http://sodipodi.sourceforge.net/DTD/sodipodi-0.dtd"
   xmlns="http://www.w3.org/2000/svg"
   xmlns:svg="http://www.w3.org/2000/svg"><defs
   id="defs13" /><sodipodi:namedview
   id="namedview13"
   pagecolor="#ffffff"
   bordercolor="#000000"
   borderopacity="0.25"
   inkscape:showpageshadow="2"
   inkscape:pageopacity="0.0"
   inkscape:pagecheckerboard="0"
   inkscape:deskcolor="#d1d1d1"
   inkscape:zoom="0.33780741"
   inkscape:cx="362.63266"
   inkscape:cy="236.82133"
   inkscape:window-width="1528"
   inkscape:window-height="687"
   inkscape:window-x="0"
   inkscape:window-y="38"
   inkscape:window-maximized="0"
   inkscape:current-layer="g13" />
<g
   id="g13"
   transform="translate(0,-68.243498)">
	<g
   id="g12">
		<g
   id="g11">
			<path
   d="m 273.067,315.733 c 0,-4.71 -3.814,-8.533 -8.533,-8.533 H 93.867 c -4.719,0 -8.533,3.823 -8.533,8.533 0,4.71 3.814,8.533 8.533,8.533 h 170.667 c 4.718,10e-4 8.533,-3.822 8.533,-8.533 z"
   id="path1" />
			<path
   d="m 230.4,119.467 h 34.842 c 3.61,21.41 20.548,38.349 41.958,41.958 v 34.842 c 0,4.71 3.814,8.533 8.533,8.533 4.719,0 8.533,-3.823 8.533,-8.533 V 153.6 c 0,-4.71 -3.814,-8.533 -8.533,-8.533 -18.825,0 -34.133,-15.309 -34.133,-34.133 0,-4.71 -3.814,-8.533 -8.533,-8.533 H 230.4 c -4.719,0 -8.533,3.823 -8.533,8.533 0,4.71 3.814,8.533 8.533,8.533 z"
   id="path2" />
			<path
   d="m 128,375.467 h 102.4 c 4.719,0 8.533,-3.823 8.533,-8.533 0,-4.71 -3.814,-8.533 -8.533,-8.533 H 128 c -4.719,0 -8.533,3.823 -8.533,8.533 0,4.71 3.814,8.533 8.533,8.533 z"
   id="path3" />
			
			<path
   d="m 315.733,375.467 c -4.719,0 -8.533,3.823 -8.533,8.533 v 34.842 c -21.41,3.61 -38.349,20.548 -41.958,41.958 H 230.4 c -4.719,0 -8.533,3.823 -8.533,8.533 0,4.71 3.814,8.533 8.533,8.533 h 42.667 c 4.719,0 8.533,-3.823 8.533,-8.533 0,-18.825 15.309,-34.133 34.133,-34.133 4.719,0 8.533,-3.823 8.533,-8.533 V 384 c 10e-4,-4.71 -3.814,-8.533 -8.533,-8.533 z"
   id="path5" />
			<path
   d="M 349.867,68.267 C 235.47175,68.24261 121.07685,68.17776 6.682,68.471 c -0.256,0.06 -0.452,0.23 -0.7,0.316 -0.563,0.179 -1.075,0.41 -1.579,0.7 C 3.934,69.752 3.498,70.025 3.089,70.366 2.662,70.724 2.313,71.117 1.963,71.552 1.63,71.979 1.332,72.388 1.076,72.875 0.829,73.353 0.649,73.839 0.496,74.36 0.325,74.915 0.206,75.461 0.155,76.05 0.128,76.305 0,76.535 0,76.8 V 503.467 C 0,508.177 3.814,512 8.533,512 h 341.333 c 4.719,0 8.533,-3.823 8.533,-8.533 V 76.8 c 10e-4,-4.71 -3.813,-8.533 -8.532,-8.533 z m -8.534,426.666 H 17.067 v -409.6 h 324.267 v 409.6 z"
   id="path6"
   sodipodi:nodetypes="sccccccccssssscscccccc" />
			
			
			<path
   d="m 42.667,435.2 c 18.825,0 34.133,15.309 34.133,34.133 0,4.71 3.814,8.533 8.533,8.533 H 128 c 4.719,0 8.533,-3.823 8.533,-8.533 0,-4.71 -3.814,-8.533 -8.533,-8.533 H 93.158 C 89.548,439.39 72.61,422.451 51.2,418.842 V 384 c 0,-4.71 -3.814,-8.533 -8.533,-8.533 -4.719,0 -8.533,3.823 -8.533,8.533 v 42.667 c -10e-4,4.71 3.814,8.533 8.533,8.533 z"
   id="path9" />
			<path
   d="m 42.667,204.8 c 4.719,0 8.533,-3.823 8.533,-8.533 v -34.842 c 21.41,-3.61 38.349,-20.548 41.958,-41.958 H 128 c 4.719,0 8.533,-3.823 8.533,-8.533 0,-4.71 -3.814,-8.534 -8.533,-8.534 H 85.333 c -4.719,0 -8.533,3.823 -8.533,8.533 0,18.825 -15.309,34.133 -34.133,34.133 -4.719,0 -8.533,3.823 -8.533,8.533 v 42.667 c -10e-4,4.711 3.814,8.534 8.533,8.534 z"
   id="path10" />
			<path
   d="m 145.067,221.867 h 68.267 c 4.719,0 8.533,-3.823 8.533,-8.533 0,-4.71 -3.814,-8.533 -8.533,-8.533 h -68.267 c -4.719,0 -8.533,3.823 -8.533,8.533 -0.001,4.71 3.814,8.533 8.533,8.533 z"
   id="path11" />
		</g>
	</g>
</g>
</svg>
