<?xml version="1.0" encoding="utf-8"?>
<!-- Uploaded to: SVG Repo, www.svgrepo.com, Generator: SVG Repo Mixer Tools -->
<svg fill="#000000" width="800px" height="800px" viewBox="0 0 32 32" version="1.1" xmlns="http://www.w3.org/2000/svg">
<title>typewriter</title>
<path d="M20 3.749h-8c-0.69 0-1.25 0.56-1.25 1.25s0.56 1.25 1.25 1.25v0h8c0.69 0 1.25-0.56 1.25-1.25s-0.56-1.25-1.25-1.25v0zM20 6.749h-8c-0.69 0-1.25 0.56-1.25 1.25s0.56 1.25 1.25 1.25v0h8c0.69 0 1.25-0.56 1.25-1.25s-0.56-1.25-1.25-1.25v0zM20 9.749h-8c-0.69 0-1.25 0.56-1.25 1.25s0.56 1.25 1.25 1.25v0h8c0.69 0 1.25-0.56 1.25-1.25s-0.56-1.25-1.25-1.25v0zM30.186 23.605l-1.596-4.788c0.998-0.564 1.66-1.617 1.66-2.826 0-1.341-0.816-2.492-1.979-2.982l-0.021-0.008v-3.002c-0.005-1.702-1.32-3.095-2.989-3.224l-0.011-0.001v-3.027c-0.002-1.794-1.456-3.248-3.25-3.25h-12.001c-1.794 0.002-3.248 1.456-3.25 3.25v3.028c-1.68 0.131-2.994 1.523-2.999 3.224v3.003c-1.184 0.498-2 1.649-2 2.99 0 1.209 0.664 2.264 1.647 2.819l0.016 0.008-1.646 4.976-1 6c-0.011 0.062-0.017 0.133-0.017 0.206 0 0.69 0.559 1.249 1.249 1.249 0 0 0.001 0 0.001 0h28c0 0 0 0 0 0 0.69 0 1.249-0.559 1.249-1.249 0-0.073-0.006-0.144-0.018-0.213l0.001 0.007zM4.25 16c0.001-0.414 0.336-0.749 0.75-0.75h22c0.414 0 0.75 0.336 0.75 0.75s-0.336 0.75-0.75 0.75v0h-22c-0.414-0.001-0.749-0.336-0.75-0.75v-0zM25.75 9.999v2.751h-0.5v-3.45c0.292 0.104 0.498 0.377 0.5 0.699v0zM9.249 3.747c0.001-0.414 0.336-0.749 0.75-0.75h12.001c0.414 0 0.75 0.336 0.75 0.75v9.003h-13.501zM6.25 9.999c0.002-0.322 0.207-0.595 0.494-0.697l0.005-0.002v3.45h-0.499zM3.472 28.75l0.714-4.355 1.716-5.145h20.2l1.666 4.955 0.758 4.545zM14.5 25.75h-1c-0.69 0-1.25 0.56-1.25 1.25s0.56 1.25 1.25 1.25v0h1c0.69 0 1.25-0.56 1.25-1.25s-0.56-1.25-1.25-1.25v0zM6.5 25.75h-1c-0.69 0-1.25 0.56-1.25 1.25s0.56 1.25 1.25 1.25v0h1c0.69 0 1.25-0.56 1.25-1.25s-0.56-1.25-1.25-1.25v0zM10.5 25.75h-1c-0.69 0-1.25 0.56-1.25 1.25s0.56 1.25 1.25 1.25v0h1c0.69 0 1.25-0.56 1.25-1.25s-0.56-1.25-1.25-1.25v0zM26.5 25.75h-1c-0.69 0-1.25 0.56-1.25 1.25s0.56 1.25 1.25 1.25v0h1c0.69 0 1.25-0.56 1.25-1.25s-0.56-1.25-1.25-1.25v0zM18.5 25.75h-1c-0.69 0-1.25 0.56-1.25 1.25s0.56 1.25 1.25 1.25v0h1c0.69 0 1.25-0.56 1.25-1.25s-0.56-1.25-1.25-1.25v0zM22.5 25.75h-1c-0.69 0-1.25 0.56-1.25 1.25s0.56 1.25 1.25 1.25v0h1c0.69 0 1.25-0.56 1.25-1.25s-0.56-1.25-1.25-1.25v0zM16.326 22.752h-1c-0.69 0-1.25 0.56-1.25 1.25s0.56 1.25 1.25 1.25v0h1c0.69 0 1.25-0.56 1.25-1.25s-0.56-1.25-1.25-1.25v0zM7.326 25.252h1c0.69 0 1.25-0.56 1.25-1.25s-0.56-1.25-1.25-1.25v0h-1c-0.69 0-1.25 0.56-1.25 1.25s0.56 1.25 1.25 1.25v0zM12.326 22.752h-1c-0.69 0-1.25 0.56-1.25 1.25s0.56 1.25 1.25 1.25v0h1c0.69 0 1.25-0.56 1.25-1.25s-0.56-1.25-1.25-1.25v0zM20.326 22.752h-1c-0.69 0-1.25 0.56-1.25 1.25s0.56 1.25 1.25 1.25v0h1c0.69 0 1.25-0.56 1.25-1.25s-0.56-1.25-1.25-1.25v0zM22.076 24.002c0.001 0.69 0.56 1.249 1.25 1.25h1c0.69 0 1.25-0.56 1.25-1.25s-0.56-1.25-1.25-1.25v0h-1c-0.69 0.001-1.249 0.56-1.25 1.25v0zM17.5 22.25h1c0.69 0 1.25-0.56 1.25-1.25s-0.56-1.25-1.25-1.25v0h-1c-0.69 0-1.25 0.56-1.25 1.25s0.56 1.25 1.25 1.25v0zM9.5 22.25h1c0.69 0 1.25-0.56 1.25-1.25s-0.56-1.25-1.25-1.25v0h-1c-0.69 0-1.25 0.56-1.25 1.25s0.56 1.25 1.25 1.25v0zM13.5 22.25h1c0.69 0 1.25-0.56 1.25-1.25s-0.56-1.25-1.25-1.25v0h-1c-0.69 0-1.25 0.56-1.25 1.25s0.56 1.25 1.25 1.25v0zM21.5 22.25h1c0.69 0 1.25-0.56 1.25-1.25s-0.56-1.25-1.25-1.25v0h-1c-0.69 0-1.25 0.56-1.25 1.25s0.56 1.25 1.25 1.25v0z"></path>
</svg>