<?xml version="1.0" encoding="UTF-8" standalone="no"?>
<!-- Created with Inkscape (http://www.inkscape.org/) -->

<svg
   width="54.276112mm"
   height="53.127743mm"
   viewBox="0 0 54.276112 53.127743"
   version="1.1"
   id="svg1"
   xml:space="preserve"
   xmlns="http://www.w3.org/2000/svg"
   xmlns:svg="http://www.w3.org/2000/svg"><defs
     id="defs1" /><g
     id="layer1"
     transform="translate(-14.291474,-112.28106)"><path
       style="fill:none;fill-opacity:0.1;stroke:#000000;stroke-width:1;stroke-linecap:square;stroke-dasharray:none;stroke-dashoffset:0;stroke-opacity:1"
       d="m 18.308893,148.66741 12.303616,-16.08246 0.354822,-17.35984"
       id="path18" /><path
       style="fill:none;fill-opacity:0.1;stroke:#000000;stroke-width:1;stroke-linecap:square;stroke-dasharray:none;stroke-dashoffset:0;stroke-opacity:1"
       d="m 30.612509,132.58495 24.039253,8.95928 -1.414484,19.66078"
       id="path19" /><path
       style="fill:none;fill-opacity:0.1;stroke:#000000;stroke-width:1;stroke-linecap:square;stroke-dasharray:none;stroke-dashoffset:0;stroke-opacity:1"
       d="M 54.651762,141.54423 65.011978,127.5047"
       id="path20" /><path
       style="fill:none;fill-opacity:0.1;stroke:#000000;stroke-width:1;stroke-linecap:square;stroke-dasharray:1, 2;stroke-dashoffset:0;stroke-opacity:1"
       d="m 15.314037,139.92014 9.044719,7.7764 9.366727,13.44793 -1.78239,3.72936"
       id="path21" /><path
       style="fill:none;fill-opacity:0.1;stroke:#000000;stroke-width:1;stroke-linecap:square;stroke-dasharray:1, 2;stroke-dashoffset:0;stroke-opacity:1"
       d="m 24.358756,147.69654 9.768158,-10.16959 -0.602147,-14.65223 -11.960244,-1.11187"
       id="path22" /><path
       style="fill:none;fill-opacity:0.1;stroke:#000000;stroke-width:1;stroke-linecap:square;stroke-dasharray:1, 2;stroke-dashoffset:0;stroke-opacity:1"
       d="m 33.524767,122.87472 15.588909,-3.94741 1.989857,-6.12374"
       id="path23" /><path
       style="fill:none;fill-opacity:0.1;stroke:#000000;stroke-width:1;stroke-linecap:square;stroke-dasharray:1, 2;stroke-dashoffset:0;stroke-opacity:1"
       d="m 49.113676,118.92731 9.0322,13.44794 9.505257,5.90155"
       id="path24" /><path
       style="fill:none;fill-opacity:0.1;stroke:#000000;stroke-width:1;stroke-linecap:square;stroke-dasharray:1, 2;stroke-dashoffset:0;stroke-opacity:1"
       d="m 58.145876,132.37525 -9.901968,10.57102 -14.116994,-5.41932"
       id="path25" /><path
       style="fill:none;fill-opacity:0.1;stroke:#000000;stroke-width:1;stroke-linecap:square;stroke-dasharray:1, 2;stroke-dashoffset:0;stroke-opacity:1"
       d="m 33.725483,161.14447 15.522003,-4.34882 12.500737,-0.26014"
       id="path26" /><path
       style="fill:none;fill-opacity:0.1;stroke:#000000;stroke-width:1;stroke-linecap:square;stroke-dasharray:1, 2;stroke-dashoffset:0;stroke-opacity:1"
       d="M 49.247486,156.79565 48.243908,142.94627"
       id="path27" /><path
       style="fill:#000000;fill-opacity:0.1;stroke:none;stroke-width:1;stroke-linecap:square;stroke-dasharray:none;stroke-dashoffset:0;stroke-opacity:1"
       d="m 18.016294,148.90681 13.926799,15.96702 21.378085,-3.19339 8.427045,-5.14493 6.298107,-18.09598 -2.838585,-11.35433 -14.104212,-14.28163 -20.136202,2.12894 -9.402808,6.83034 -6.741636,17.82986 z"
       id="path28" /><path
       style="fill:none;fill-opacity:0.1;stroke:#000000;stroke-width:1;stroke-linecap:square;stroke-dasharray:none;stroke-dashoffset:0;stroke-opacity:1"
       d="m 18.016294,148.90681 13.926799,15.96702 21.378085,-3.19339 8.427045,-5.14493 6.298107,-18.09598 -2.838585,-11.35433 -14.104212,-14.28163 -20.136202,2.12894 -9.402808,6.83034 -6.741636,17.82986 z"
       id="path17" /></g></svg>
