<?xml version="1.0" encoding="UTF-8" standalone="no"?>
<!-- Created with Inkscape (http://www.inkscape.org/) -->

<svg
   width="134.40398mm"
   height="234.56546mm"
   viewBox="0 0 134.40398 234.56547"
   version="1.1"
   id="svg1"
   xml:space="preserve"
   inkscape:version="1.4 (e7c3feb1, 2024-10-09)"
   sodipodi:docname="thumbs-up.svg"
   xmlns:inkscape="http://www.inkscape.org/namespaces/inkscape"
   xmlns:sodipodi="http://sodipodi.sourceforge.net/DTD/sodipodi-0.dtd"
   xmlns="http://www.w3.org/2000/svg"
   xmlns:svg="http://www.w3.org/2000/svg"><sodipodi:namedview
     id="namedview1"
     pagecolor="#ffffff"
     bordercolor="#000000"
     borderopacity="0.25"
     inkscape:showpageshadow="2"
     inkscape:pageopacity="0.0"
     inkscape:pagecheckerboard="0"
     inkscape:deskcolor="#d1d1d1"
     inkscape:document-units="mm"
     inkscape:zoom="0.20083919"
     inkscape:cx="-754.33486"
     inkscape:cy="149.37324"
     inkscape:window-width="1568"
     inkscape:window-height="827"
     inkscape:window-x="0"
     inkscape:window-y="38"
     inkscape:window-maximized="0"
     inkscape:current-layer="layer1" /><defs
     id="defs1" /><g
     inkscape:label="Ebene 1"
     inkscape:groupmode="layer"
     id="layer1"
     transform="translate(-205.33612,-91.4292)"><path
       style="fill:#000000"
       d="m 270.94398,325.6712 c -3.04937,-0.62307 -5.42207,-1.69726 -8.99583,-4.07269 -1.85237,-1.23124 -2.01078,-1.28858 -2.38125,-0.86184 -1.78587,2.05707 -4.32661,1.69256 -5.05081,-0.72461 -0.2376,-0.79305 -0.21107,-1.57289 0.12592,-3.70057 0.32313,-2.04012 0.42665,-4.60763 0.42565,-10.55653 -0.002,-10.49873 -0.659,-18.01343 -2.52334,-28.85176 -0.90473,-5.25961 -0.9454,-5.39941 -1.80906,-6.21771 -1.11861,-1.05986 -2.94558,-4.8471 -3.33945,-6.92254 -0.23509,-1.2388 -0.69679,-11.44412 -0.78105,-17.26406 -0.0107,-0.74205 -0.1049,-0.8599 -0.68704,-0.8599 -0.92629,0 -2.16444,-0.68119 -2.3604,-1.29862 -0.10604,-0.33409 -0.50136,-0.56928 -1.14323,-0.68015 -1.1519,-0.19897 -1.52315,-0.46217 -2.50298,-1.77451 -0.56359,-0.75484 -1.63957,-1.43516 -4.7625,-3.0112 -2.21893,-1.11983 -5.23608,-2.73484 -6.70478,-3.58891 -2.43614,-1.41665 -2.80745,-1.55294 -4.23333,-1.55385 -1.88894,-0.001 -3.09099,-0.63722 -3.72769,-1.9724 -0.37783,-0.79233 -0.39169,-1.07459 -0.10074,-2.05233 0.28711,-0.9648 1.6389,-2.44123 9.07592,-9.91266 4.80622,-4.82846 9.68493,-9.53143 10.84158,-10.45105 l 2.103,-1.67203 -0.15178,-1.32291 c -0.0835,-0.72761 -0.15283,-1.70987 -0.15409,-2.18282 -0.002,-0.80081 -0.064,-0.85989 -0.90047,-0.85989 -2.07187,0 -6.97883,-2.04687 -10.34662,-4.31595 -9.60966,-6.47459 -15.32208,-13.09896 -21.03348,-24.39134 -3.36514,-6.65342 -4.4739,-10.90234 -4.48958,-17.20456 -0.008,-3.23834 0.0903,-4.1142 0.77244,-6.87917 2.4445,-9.90832 8.02969,-22.75602 12.64936,-29.09753 2.62481,-3.60311 4.14553,-5.24767 7.36513,-7.96486 5.72581,-4.8323 13.97336,-9.68222 18.62675,-10.95333 2.30237,-0.62891 8.37167,-1.65697 12.57742,-2.13045 l 2.92013,-0.32874 -0.01,-2.540475 c -0.009,-2.332885 0.0546,-2.656663 0.77783,-3.962398 1.20728,-2.179774 2.994,-2.734038 4.37183,-1.356201 0.84047,0.840466 0.94443,1.81085 0.32396,3.02392 -0.91777,1.794308 -1.00016,2.738592 -0.30361,3.480025 0.33058,0.351893 0.78867,0.635017 1.01796,0.629165 0.2293,-0.0059 0.95268,-0.729393 1.60753,-1.60787 0.65484,-0.878476 1.92446,-2.302438 2.82137,-3.16436 1.6976,-1.631385 2.60334,-1.939343 3.80786,-1.294703 0.75778,0.405546 1.38464,1.793107 1.20833,2.674634 -0.0833,0.416408 -0.0912,0.757106 -0.0176,0.757106 0.0736,0 0.71064,-0.595313 1.41564,-1.322917 1.10698,-1.142482 1.42262,-1.322916 2.31422,-1.322916 1.30781,0 2.08451,0.542409 2.47621,1.729257 0.26337,0.798018 0.23265,1.086565 -0.21114,1.983555 l -0.51935,1.049688 1.22358,0.0039 c 4.27728,0.01367 9.49171,2.60965 19.65607,9.78567 6.71521,4.74093 8.77486,6.40335 10.52853,8.49797 3.84436,4.59178 5.30038,8.59163 7.15043,19.64305 1.36985,8.18284 1.6645,15.7511 0.79462,20.41002 -0.55084,2.9502 -2.63482,9.65512 -3.59939,11.58057 -1.11008,2.21588 -4.82944,8.30227 -6.01971,9.85069 -1.61833,2.10528 -4.14752,4.7937 -5.90918,6.28123 -3.13398,2.64629 -8.36907,6.09077 -11.96937,7.87535 -1.97295,0.97795 -10.33517,4.40047 -12.24054,5.00986 l -0.98004,0.31345 0.36541,0.84339 c 0.20097,0.46386 0.43026,1.05271 0.50954,1.30856 0.1293,0.41733 0.2785,0.38249 1.45071,-0.33878 2.07819,-1.27872 8.96809,-4.49368 14.71566,-6.86662 2.91042,-1.20159 9.31241,-3.89109 14.22665,-5.97667 8.13896,-3.45414 9.07539,-3.91695 10.51103,-5.19483 1.47271,-1.31087 1.57722,-1.48093 1.59382,-2.59349 0.0225,-1.51077 0.5196,-2.90586 1.4849,-4.16772 0.75357,-0.98507 0.7586,-1.01678 0.7586,-4.77917 v -3.78752 l 1.07214,-1.00186 c 1.25108,-1.16907 2.52962,-1.49981 4.13097,-1.06862 2.34393,0.63116 3.32147,2.882 3.06204,7.05055 l -0.13489,2.16754 1.56877,1.2325 c 1.84424,1.44892 3.48865,3.53066 4.05345,5.13146 0.62285,1.76535 0.5209,4.38764 -0.23208,5.96972 -1.51079,3.17424 -5.93133,6.05434 -8.5411,5.56474 -1.15174,-0.21606 -2.61832,-1.51319 -2.99239,-2.64664 -0.38426,-1.16431 -2.2461,-2.19746 -2.89982,-1.60911 -0.85856,0.77271 -5.86536,2.91133 -27.92667,11.92873 -5.96862,2.43962 -11.26769,4.92145 -13.57812,6.35931 l -1.67187,1.04047 0.1416,2.24896 c 0.0779,1.23693 0.56349,4.39208 1.07913,7.01146 1.28305,6.51772 1.35867,7.03748 2.1122,14.51762 0.36457,3.61907 1.55794,12.80723 2.65194,20.41814 1.09399,7.61091 1.98908,14.36716 1.98908,15.01389 0,2.24863 -1.31903,3.20124 -4.82865,3.48729 -1.27331,0.10378 -2.3151,0.2863 -2.3151,0.40561 0,0.60934 5.8644,8.10257 8.98744,11.48369 2.54163,2.75167 3.40121,4.09519 3.74068,5.84668 0.30675,1.58268 -0.12789,2.76638 -2.04883,5.57982 -2.19439,3.21392 -4.42827,6.79718 -5.88191,9.43487 l -1.12983,2.05011 0.74235,0.28224 c 1.22117,0.46429 4.88664,3.01431 6.34309,4.41281 1.71159,1.6435 2.28132,2.73993 2.30586,4.43758 0.0479,3.31403 -2.91921,5.02474 -6.16286,3.55324 -0.64559,-0.29288 -2.43152,-1.46521 -3.96875,-2.60519 -1.53722,-1.13998 -3.54131,-2.57659 -4.45353,-3.19247 -1.8514,-1.24995 -2.17794,-1.6949 -2.17775,-2.96739 4e-4,-2.62704 4.83415,-11.6287 10.7072,-19.9395 0.31005,-0.43873 -0.42125,-1.4713 -3.39998,-4.80069 -1.14694,-1.28197 -2.99241,-3.56775 -4.10104,-5.07952 -1.10863,-1.51177 -2.70029,-3.58019 -3.53704,-4.59648 -1.2084,-1.46769 -1.52135,-2.03772 -1.52135,-2.77105 v -0.92325 l -8.40052,0.13538 c -7.34098,0.1183 -9.49184,0.28041 -11.07649,0.83483 -0.32187,0.11262 -0.30877,0.21798 0.8079,6.49736 1.5727,8.84371 2.65041,22.61861 2.48306,31.73768 l -0.075,4.08872 1.31752,-0.0682 c 1.55179,-0.0803 5.5525,0.91017 11.58757,2.86872 3.43406,1.11444 4.37859,1.53304 5.26597,2.33376 2.31884,2.0924 2.4096,5.04524 0.20259,6.59109 -1.49784,1.04913 -4.85902,1.35858 -7.93341,0.73039 z m -14.75347,-60.44961 c 2.89396,-0.79194 6.25215,-1.05184 13.69514,-1.05991 6.05952,-0.007 12.88305,-0.36129 13.20841,-0.68665 0.0679,-0.0679 -0.39024,-3.48365 -1.01799,-7.59064 -2.38188,-15.58319 -2.67637,-17.6861 -3.32439,-23.73915 -0.8629,-8.06006 -0.79404,-7.58855 -2.1636,-14.81666 -1.02194,-5.39351 -1.21313,-6.97091 -1.44231,-11.89978 -0.14531,-3.12514 -0.29172,-5.70961 -0.32537,-5.74325 -0.0337,-0.0336 -1.63048,0.58054 -3.54851,1.36488 -1.91804,0.78433 -5.36607,2.04378 -7.66231,2.79878 -6.02247,1.98018 -7.46133,1.93831 -15.78961,-0.45947 -0.44506,-0.12814 -0.48152,-0.0434 -0.32075,0.74557 0.40277,1.97635 3.8593,26.49936 4.13449,29.33285 0.16253,1.67349 0.4047,8.51958 0.53816,15.21354 0.13345,6.69396 0.36017,12.82568 0.50382,13.62604 0.28595,1.59325 1.02253,3.43959 1.37219,3.43959 0.1218,0 1.08598,-0.23658 2.14263,-0.52574 z m -10.36786,-29.99027 c 0.35515,-0.10292 0.38006,-0.45534 0.18337,-2.59478 -0.224,-2.43661 -2.51631,-18.55066 -2.645,-18.59336 -0.0363,-0.012 -3.32319,3.26939 -7.30421,7.29208 l -7.23821,7.31398 1.94655,1.14444 c 1.0706,0.62944 4.03014,2.18044 6.57675,3.44667 2.54661,1.26624 4.85687,2.47236 5.13391,2.68029 0.44064,0.33071 0.65594,0.31868 1.71979,-0.0961 0.66885,-0.26077 1.40102,-0.52773 1.62705,-0.59323 z m 16.78696,-37.49292 c 2.18281,-0.75624 5.57609,-2.08161 7.54062,-2.94526 1.96453,-0.86365 4.84295,-1.91808 6.39648,-2.34317 6.18841,-1.69331 13.97488,-5.16496 18.94899,-8.44852 4.60617,-3.04067 6.59449,-4.68567 8.94062,-7.39683 1.90709,-2.2038 5.84267,-8.22411 7.03685,-10.76436 0.95557,-2.03267 2.49453,-7.2225 3.00334,-10.12811 0.75251,-4.29735 0.43979,-10.57483 -0.93229,-18.7145 -2.14825,-12.74419 -3.60511,-15.22229 -12.74082,-21.67194 -9.24196,-6.52466 -12.58664,-8.56527 -15.8365,-9.66198 -1.64352,-0.55462 -2.01902,-0.57409 -8.46667,-0.4388 -8.5987,0.18042 -23.30154,1.75463 -29.13971,3.11994 -6.03168,1.41057 -17.71675,9.15067 -22.1912,14.69927 -2.12243,2.63195 -3.55578,4.84227 -5.39394,8.31783 -2.7537,5.20663 -6.11206,13.67708 -7.72517,19.48439 -0.92721,3.33802 -0.93722,3.42893 -0.82321,7.48013 0.0962,3.41852 0.22825,4.47533 0.79348,6.35 1.46145,4.84715 3.91903,9.72802 8.02914,15.94625 3.73432,5.6497 10.07687,11.54555 16.17172,15.03276 3.30813,1.89276 4.09738,2.07544 9.00931,2.08527 2.71078,0.005 4.52671,0.12094 4.88088,0.31048 0.3102,0.16602 1.52276,0.51434 2.69458,0.77404 3.30874,0.7333 5.13373,0.53097 9.8035,-1.08689 z m -2.24896,-17.28564 c -3.17847,-0.69669 -6.89341,-3.32779 -8.97937,-6.35963 -3.0904,-4.49175 -4.8806,-11.34465 -3.87091,-14.81788 0.57794,-1.98803 1.37906,-2.80084 2.76057,-2.80084 0.85296,0 1.17883,0.15686 1.75951,0.84697 0.61491,0.73077 0.68766,0.99394 0.53033,1.91823 -0.10029,0.58919 -0.2434,1.44589 -0.31803,1.90379 -0.38068,2.33568 2.15528,8.661 4.44159,11.07843 1.93846,2.04963 3.70091,2.8509 6.57279,2.98821 2.81579,0.13462 4.9164,-0.51752 8.40014,-2.60787 6.3307,-3.7986 10.30781,-7.90821 10.84261,-11.20382 0.13841,-0.85292 0.0267,-1.07795 -1.20375,-2.42422 -1.31341,-1.43709 -1.50398,-1.89182 -1.3802,-3.29347 0.14115,-1.59832 1.84616,-2.79524 3.51316,-2.46623 1.08822,0.21478 3.76211,2.85843 4.47183,4.42126 0.67251,1.4809 0.66389,4.35578 -0.0197,6.56901 -1.44519,4.67897 -8.25134,11.1136 -15.48203,14.63692 -1.30969,0.63818 -3.09087,1.3435 -3.95819,1.56739 -1.86543,0.48153 -5.98139,0.50382 -8.08035,0.0438 z m -28.70729,-30.3082 c -1.30791,-0.5494 -2.36506,-2.66836 -2.09602,-4.20128 0.0944,-0.53804 0.64932,-1.93075 1.23308,-3.09491 3.28665,-6.55439 8.3619,-11.44492 13.38147,-12.89443 2.32647,-0.67181 8.62263,-0.94678 10.6618,-0.46562 3.19359,0.75355 6.24175,2.82539 7.25147,4.92884 0.60891,1.26846 0.8049,3.59111 0.42278,5.01018 -0.36329,1.34915 -1.68354,3.36196 -2.59836,3.96137 -2.81007,1.84123 -6.01399,-1.9093 -3.69699,-4.32773 0.57608,-0.6013 0.72724,-0.98317 0.66146,-1.67102 -0.0742,-0.77616 -0.2703,-0.99074 -1.51432,-1.65739 -2.71905,-1.45707 -8.16024,-1.20547 -11.6123,0.53695 -2.32872,1.17542 -5.27423,4.14296 -7.67554,7.73297 -1.48459,2.21948 -1.56295,2.41651 -1.44731,3.63891 0.10452,1.10491 0.0322,1.37589 -0.49844,1.86808 -0.7381,0.68459 -1.74146,0.94228 -2.47278,0.63508 z m 62.51815,-2.94567 c -0.75369,-0.75369 -0.79882,-0.90611 -0.6617,-2.23469 0.1311,-1.27022 0.0612,-1.55553 -0.64009,-2.61435 -0.88165,-1.33105 -3.05993,-2.89778 -4.90112,-3.52514 -1.48269,-0.5052 -5.05048,-0.33357 -6.61286,0.31812 -1.74059,0.72603 -4.32634,3.69085 -4.32634,4.96059 0,0.2695 -0.31504,0.78198 -0.70009,1.13883 -0.9396,0.87079 -2.27726,0.87053 -3.1484,-6.1e-4 -1.59446,-1.59446 -0.30779,-5.95965 2.6393,-8.95421 1.59811,-1.62384 3.56426,-2.69493 5.67707,-3.09266 2.37691,-0.44744 6.38729,-0.3337 8.2074,0.23278 3.43127,1.06794 7.43124,4.28875 8.87049,7.14262 0.90139,1.78735 1.06324,3.18715 0.5662,4.89692 -0.53114,1.82706 -1.36974,2.54065 -2.98571,2.54065 -0.95799,0 -1.32486,-0.14956 -1.98415,-0.80885 z"
       id="path1" /></g></svg>
